<?xml version="1.0" encoding="utf-8" standalone="no"?>
<!DOCTYPE svg PUBLIC "-//W3C//DTD SVG 1.1//EN"
  "http://www.w3.org/Graphics/SVG/1.1/DTD/svg11.dtd">
<svg height="576pt" version="1.1" viewBox="0 0 720 576" width="720pt" xmlns="http://www.w3.org/2000/svg" xmlns:xlink="http://www.w3.org/1999/xlink">
 <metadata>
  <rdf:RDF xmlns:cc="http://creativecommons.org/ns#" xmlns:dc="http://purl.org/dc/elements/1.1/" xmlns:rdf="http://www.w3.org/1999/02/22-rdf-syntax-ns#">
   <cc:Work>
    <dc:type rdf:resource="http://purl.org/dc/dcmitype/StillImage"/>
    <dc:date>2021-11-08T12:49:44.739912</dc:date>
    <dc:format>image/svg+xml</dc:format>
    <dc:creator>
     <cc:Agent>
      <dc:title>Matplotlib v3.4.3, https://matplotlib.org/</dc:title>
     </cc:Agent>
    </dc:creator>
   </cc:Work>
  </rdf:RDF>
 </metadata>
 <defs>
  <style type="text/css">*{stroke-linecap:butt;stroke-linejoin:round;}</style>
 </defs>
 <g id="figure_1">
  <g id="patch_1">
   <path d="M 0 576 
L 720 576 
L 720 0 
L 0 0 
z
" style="fill:#ffffff;"/>
  </g>
  <g id="axes_1">
   <g id="patch_2">
    <path d="M 90 512.64 
L 648 512.64 
L 648 69.12 
L 90 69.12 
z
" style="fill:#e5e5e5;"/>
   </g>
   <g id="matplotlib.axis_1">
    <g id="xtick_1">
     <g id="line2d_1">
      <path clip-path="url(#p24bc209865)" d="M 147.790002 512.64 
L 147.790002 69.12 
" style="fill:none;stroke:#ffffff;stroke-linecap:square;stroke-width:0.8;"/>
     </g>
     <g id="line2d_2">
      <defs>
       <path d="M 0 0 
L 0 3.5 
" id="m44a0a54de0" style="stroke:#555555;stroke-width:0.8;"/>
      </defs>
      <g>
       <use style="fill:#555555;stroke:#555555;stroke-width:0.8;" x="147.790002" xlink:href="#m44a0a54de0" y="512.64"/>
      </g>
     </g>
     <g id="text_1">
      <!-- 2016 -->
      <g style="fill:#555555;" transform="translate(135.065002 527.238438)scale(0.1 -0.1)">
       <defs>
        <path d="M 1228 531 
L 3431 531 
L 3431 0 
L 469 0 
L 469 531 
Q 828 903 1448 1529 
Q 2069 2156 2228 2338 
Q 2531 2678 2651 2914 
Q 2772 3150 2772 3378 
Q 2772 3750 2511 3984 
Q 2250 4219 1831 4219 
Q 1534 4219 1204 4116 
Q 875 4013 500 3803 
L 500 4441 
Q 881 4594 1212 4672 
Q 1544 4750 1819 4750 
Q 2544 4750 2975 4387 
Q 3406 4025 3406 3419 
Q 3406 3131 3298 2873 
Q 3191 2616 2906 2266 
Q 2828 2175 2409 1742 
Q 1991 1309 1228 531 
z
" id="DejaVuSans-32" transform="scale(0.015625)"/>
        <path d="M 2034 4250 
Q 1547 4250 1301 3770 
Q 1056 3291 1056 2328 
Q 1056 1369 1301 889 
Q 1547 409 2034 409 
Q 2525 409 2770 889 
Q 3016 1369 3016 2328 
Q 3016 3291 2770 3770 
Q 2525 4250 2034 4250 
z
M 2034 4750 
Q 2819 4750 3233 4129 
Q 3647 3509 3647 2328 
Q 3647 1150 3233 529 
Q 2819 -91 2034 -91 
Q 1250 -91 836 529 
Q 422 1150 422 2328 
Q 422 3509 836 4129 
Q 1250 4750 2034 4750 
z
" id="DejaVuSans-30" transform="scale(0.015625)"/>
        <path d="M 794 531 
L 1825 531 
L 1825 4091 
L 703 3866 
L 703 4441 
L 1819 4666 
L 2450 4666 
L 2450 531 
L 3481 531 
L 3481 0 
L 794 0 
L 794 531 
z
" id="DejaVuSans-31" transform="scale(0.015625)"/>
        <path d="M 2113 2584 
Q 1688 2584 1439 2293 
Q 1191 2003 1191 1497 
Q 1191 994 1439 701 
Q 1688 409 2113 409 
Q 2538 409 2786 701 
Q 3034 994 3034 1497 
Q 3034 2003 2786 2293 
Q 2538 2584 2113 2584 
z
M 3366 4563 
L 3366 3988 
Q 3128 4100 2886 4159 
Q 2644 4219 2406 4219 
Q 1781 4219 1451 3797 
Q 1122 3375 1075 2522 
Q 1259 2794 1537 2939 
Q 1816 3084 2150 3084 
Q 2853 3084 3261 2657 
Q 3669 2231 3669 1497 
Q 3669 778 3244 343 
Q 2819 -91 2113 -91 
Q 1303 -91 875 529 
Q 447 1150 447 2328 
Q 447 3434 972 4092 
Q 1497 4750 2381 4750 
Q 2619 4750 2861 4703 
Q 3103 4656 3366 4563 
z
" id="DejaVuSans-36" transform="scale(0.015625)"/>
       </defs>
       <use xlink:href="#DejaVuSans-32"/>
       <use x="63.623047" xlink:href="#DejaVuSans-30"/>
       <use x="127.246094" xlink:href="#DejaVuSans-31"/>
       <use x="190.869141" xlink:href="#DejaVuSans-36"/>
      </g>
     </g>
    </g>
    <g id="xtick_2">
     <g id="line2d_3">
      <path clip-path="url(#p24bc209865)" d="M 229.078013 512.64 
L 229.078013 69.12 
" style="fill:none;stroke:#ffffff;stroke-linecap:square;stroke-width:0.8;"/>
     </g>
     <g id="line2d_4">
      <g>
       <use style="fill:#555555;stroke:#555555;stroke-width:0.8;" x="229.078013" xlink:href="#m44a0a54de0" y="512.64"/>
      </g>
     </g>
     <g id="text_2">
      <!-- 2017 -->
      <g style="fill:#555555;" transform="translate(216.353013 527.238438)scale(0.1 -0.1)">
       <defs>
        <path d="M 525 4666 
L 3525 4666 
L 3525 4397 
L 1831 0 
L 1172 0 
L 2766 4134 
L 525 4134 
L 525 4666 
z
" id="DejaVuSans-37" transform="scale(0.015625)"/>
       </defs>
       <use xlink:href="#DejaVuSans-32"/>
       <use x="63.623047" xlink:href="#DejaVuSans-30"/>
       <use x="127.246094" xlink:href="#DejaVuSans-31"/>
       <use x="190.869141" xlink:href="#DejaVuSans-37"/>
      </g>
     </g>
    </g>
    <g id="xtick_3">
     <g id="line2d_5">
      <path clip-path="url(#p24bc209865)" d="M 310.143926 512.64 
L 310.143926 69.12 
" style="fill:none;stroke:#ffffff;stroke-linecap:square;stroke-width:0.8;"/>
     </g>
     <g id="line2d_6">
      <g>
       <use style="fill:#555555;stroke:#555555;stroke-width:0.8;" x="310.143926" xlink:href="#m44a0a54de0" y="512.64"/>
      </g>
     </g>
     <g id="text_3">
      <!-- 2018 -->
      <g style="fill:#555555;" transform="translate(297.418926 527.238438)scale(0.1 -0.1)">
       <defs>
        <path d="M 2034 2216 
Q 1584 2216 1326 1975 
Q 1069 1734 1069 1313 
Q 1069 891 1326 650 
Q 1584 409 2034 409 
Q 2484 409 2743 651 
Q 3003 894 3003 1313 
Q 3003 1734 2745 1975 
Q 2488 2216 2034 2216 
z
M 1403 2484 
Q 997 2584 770 2862 
Q 544 3141 544 3541 
Q 544 4100 942 4425 
Q 1341 4750 2034 4750 
Q 2731 4750 3128 4425 
Q 3525 4100 3525 3541 
Q 3525 3141 3298 2862 
Q 3072 2584 2669 2484 
Q 3125 2378 3379 2068 
Q 3634 1759 3634 1313 
Q 3634 634 3220 271 
Q 2806 -91 2034 -91 
Q 1263 -91 848 271 
Q 434 634 434 1313 
Q 434 1759 690 2068 
Q 947 2378 1403 2484 
z
M 1172 3481 
Q 1172 3119 1398 2916 
Q 1625 2713 2034 2713 
Q 2441 2713 2670 2916 
Q 2900 3119 2900 3481 
Q 2900 3844 2670 4047 
Q 2441 4250 2034 4250 
Q 1625 4250 1398 4047 
Q 1172 3844 1172 3481 
z
" id="DejaVuSans-38" transform="scale(0.015625)"/>
       </defs>
       <use xlink:href="#DejaVuSans-32"/>
       <use x="63.623047" xlink:href="#DejaVuSans-30"/>
       <use x="127.246094" xlink:href="#DejaVuSans-31"/>
       <use x="190.869141" xlink:href="#DejaVuSans-38"/>
      </g>
     </g>
    </g>
    <g id="xtick_4">
     <g id="line2d_7">
      <path clip-path="url(#p24bc209865)" d="M 391.209839 512.64 
L 391.209839 69.12 
" style="fill:none;stroke:#ffffff;stroke-linecap:square;stroke-width:0.8;"/>
     </g>
     <g id="line2d_8">
      <g>
       <use style="fill:#555555;stroke:#555555;stroke-width:0.8;" x="391.209839" xlink:href="#m44a0a54de0" y="512.64"/>
      </g>
     </g>
     <g id="text_4">
      <!-- 2019 -->
      <g style="fill:#555555;" transform="translate(378.484839 527.238438)scale(0.1 -0.1)">
       <defs>
        <path d="M 703 97 
L 703 672 
Q 941 559 1184 500 
Q 1428 441 1663 441 
Q 2288 441 2617 861 
Q 2947 1281 2994 2138 
Q 2813 1869 2534 1725 
Q 2256 1581 1919 1581 
Q 1219 1581 811 2004 
Q 403 2428 403 3163 
Q 403 3881 828 4315 
Q 1253 4750 1959 4750 
Q 2769 4750 3195 4129 
Q 3622 3509 3622 2328 
Q 3622 1225 3098 567 
Q 2575 -91 1691 -91 
Q 1453 -91 1209 -44 
Q 966 3 703 97 
z
M 1959 2075 
Q 2384 2075 2632 2365 
Q 2881 2656 2881 3163 
Q 2881 3666 2632 3958 
Q 2384 4250 1959 4250 
Q 1534 4250 1286 3958 
Q 1038 3666 1038 3163 
Q 1038 2656 1286 2365 
Q 1534 2075 1959 2075 
z
" id="DejaVuSans-39" transform="scale(0.015625)"/>
       </defs>
       <use xlink:href="#DejaVuSans-32"/>
       <use x="63.623047" xlink:href="#DejaVuSans-30"/>
       <use x="127.246094" xlink:href="#DejaVuSans-31"/>
       <use x="190.869141" xlink:href="#DejaVuSans-39"/>
      </g>
     </g>
    </g>
    <g id="xtick_5">
     <g id="line2d_9">
      <path clip-path="url(#p24bc209865)" d="M 472.275752 512.64 
L 472.275752 69.12 
" style="fill:none;stroke:#ffffff;stroke-linecap:square;stroke-width:0.8;"/>
     </g>
     <g id="line2d_10">
      <g>
       <use style="fill:#555555;stroke:#555555;stroke-width:0.8;" x="472.275752" xlink:href="#m44a0a54de0" y="512.64"/>
      </g>
     </g>
     <g id="text_5">
      <!-- 2020 -->
      <g style="fill:#555555;" transform="translate(459.550752 527.238438)scale(0.1 -0.1)">
       <use xlink:href="#DejaVuSans-32"/>
       <use x="63.623047" xlink:href="#DejaVuSans-30"/>
       <use x="127.246094" xlink:href="#DejaVuSans-32"/>
       <use x="190.869141" xlink:href="#DejaVuSans-30"/>
      </g>
     </g>
    </g>
    <g id="xtick_6">
     <g id="line2d_11">
      <path clip-path="url(#p24bc209865)" d="M 553.563764 512.64 
L 553.563764 69.12 
" style="fill:none;stroke:#ffffff;stroke-linecap:square;stroke-width:0.8;"/>
     </g>
     <g id="line2d_12">
      <g>
       <use style="fill:#555555;stroke:#555555;stroke-width:0.8;" x="553.563764" xlink:href="#m44a0a54de0" y="512.64"/>
      </g>
     </g>
     <g id="text_6">
      <!-- 2021 -->
      <g style="fill:#555555;" transform="translate(540.838764 527.238438)scale(0.1 -0.1)">
       <use xlink:href="#DejaVuSans-32"/>
       <use x="63.623047" xlink:href="#DejaVuSans-30"/>
       <use x="127.246094" xlink:href="#DejaVuSans-32"/>
       <use x="190.869141" xlink:href="#DejaVuSans-31"/>
      </g>
     </g>
    </g>
    <g id="xtick_7">
     <g id="line2d_13">
      <path clip-path="url(#p24bc209865)" d="M 634.629677 512.64 
L 634.629677 69.12 
" style="fill:none;stroke:#ffffff;stroke-linecap:square;stroke-width:0.8;"/>
     </g>
     <g id="line2d_14">
      <g>
       <use style="fill:#555555;stroke:#555555;stroke-width:0.8;" x="634.629677" xlink:href="#m44a0a54de0" y="512.64"/>
      </g>
     </g>
     <g id="text_7">
      <!-- 2022 -->
      <g style="fill:#555555;" transform="translate(621.904677 527.238438)scale(0.1 -0.1)">
       <use xlink:href="#DejaVuSans-32"/>
       <use x="63.623047" xlink:href="#DejaVuSans-30"/>
       <use x="127.246094" xlink:href="#DejaVuSans-32"/>
       <use x="190.869141" xlink:href="#DejaVuSans-32"/>
      </g>
     </g>
    </g>
   </g>
   <g id="matplotlib.axis_2">
    <g id="ytick_1">
     <g id="line2d_15">
      <path clip-path="url(#p24bc209865)" d="M 90 475.819512 
L 648 475.819512 
" style="fill:none;stroke:#ffffff;stroke-linecap:square;stroke-width:0.8;"/>
     </g>
     <g id="line2d_16">
      <defs>
       <path d="M 0 0 
L -3.5 0 
" id="m543f533aec" style="stroke:#555555;stroke-width:0.8;"/>
      </defs>
      <g>
       <use style="fill:#555555;stroke:#555555;stroke-width:0.8;" x="90" xlink:href="#m543f533aec" y="475.819512"/>
      </g>
     </g>
     <g id="text_8">
      <!-- −15 -->
      <g style="fill:#555555;" transform="translate(61.895313 479.618731)scale(0.1 -0.1)">
       <defs>
        <path d="M 678 2272 
L 4684 2272 
L 4684 1741 
L 678 1741 
L 678 2272 
z
" id="DejaVuSans-2212" transform="scale(0.015625)"/>
        <path d="M 691 4666 
L 3169 4666 
L 3169 4134 
L 1269 4134 
L 1269 2991 
Q 1406 3038 1543 3061 
Q 1681 3084 1819 3084 
Q 2600 3084 3056 2656 
Q 3513 2228 3513 1497 
Q 3513 744 3044 326 
Q 2575 -91 1722 -91 
Q 1428 -91 1123 -41 
Q 819 9 494 109 
L 494 744 
Q 775 591 1075 516 
Q 1375 441 1709 441 
Q 2250 441 2565 725 
Q 2881 1009 2881 1497 
Q 2881 1984 2565 2268 
Q 2250 2553 1709 2553 
Q 1456 2553 1204 2497 
Q 953 2441 691 2322 
L 691 4666 
z
" id="DejaVuSans-35" transform="scale(0.015625)"/>
       </defs>
       <use xlink:href="#DejaVuSans-2212"/>
       <use x="83.789062" xlink:href="#DejaVuSans-31"/>
       <use x="147.412109" xlink:href="#DejaVuSans-35"/>
      </g>
     </g>
    </g>
    <g id="ytick_2">
     <g id="line2d_17">
      <path clip-path="url(#p24bc209865)" d="M 90 396.162949 
L 648 396.162949 
" style="fill:none;stroke:#ffffff;stroke-linecap:square;stroke-width:0.8;"/>
     </g>
     <g id="line2d_18">
      <g>
       <use style="fill:#555555;stroke:#555555;stroke-width:0.8;" x="90" xlink:href="#m543f533aec" y="396.162949"/>
      </g>
     </g>
     <g id="text_9">
      <!-- −10 -->
      <g style="fill:#555555;" transform="translate(61.895313 399.962168)scale(0.1 -0.1)">
       <use xlink:href="#DejaVuSans-2212"/>
       <use x="83.789062" xlink:href="#DejaVuSans-31"/>
       <use x="147.412109" xlink:href="#DejaVuSans-30"/>
      </g>
     </g>
    </g>
    <g id="ytick_3">
     <g id="line2d_19">
      <path clip-path="url(#p24bc209865)" d="M 90 316.506386 
L 648 316.506386 
" style="fill:none;stroke:#ffffff;stroke-linecap:square;stroke-width:0.8;"/>
     </g>
     <g id="line2d_20">
      <g>
       <use style="fill:#555555;stroke:#555555;stroke-width:0.8;" x="90" xlink:href="#m543f533aec" y="316.506386"/>
      </g>
     </g>
     <g id="text_10">
      <!-- −5 -->
      <g style="fill:#555555;" transform="translate(68.257812 320.305605)scale(0.1 -0.1)">
       <use xlink:href="#DejaVuSans-2212"/>
       <use x="83.789062" xlink:href="#DejaVuSans-35"/>
      </g>
     </g>
    </g>
    <g id="ytick_4">
     <g id="line2d_21">
      <path clip-path="url(#p24bc209865)" d="M 90 236.849823 
L 648 236.849823 
" style="fill:none;stroke:#ffffff;stroke-linecap:square;stroke-width:0.8;"/>
     </g>
     <g id="line2d_22">
      <g>
       <use style="fill:#555555;stroke:#555555;stroke-width:0.8;" x="90" xlink:href="#m543f533aec" y="236.849823"/>
      </g>
     </g>
     <g id="text_11">
      <!-- 0 -->
      <g style="fill:#555555;" transform="translate(76.6375 240.649042)scale(0.1 -0.1)">
       <use xlink:href="#DejaVuSans-30"/>
      </g>
     </g>
    </g>
    <g id="ytick_5">
     <g id="line2d_23">
      <path clip-path="url(#p24bc209865)" d="M 90 157.19326 
L 648 157.19326 
" style="fill:none;stroke:#ffffff;stroke-linecap:square;stroke-width:0.8;"/>
     </g>
     <g id="line2d_24">
      <g>
       <use style="fill:#555555;stroke:#555555;stroke-width:0.8;" x="90" xlink:href="#m543f533aec" y="157.19326"/>
      </g>
     </g>
     <g id="text_12">
      <!-- 5 -->
      <g style="fill:#555555;" transform="translate(76.6375 160.992479)scale(0.1 -0.1)">
       <use xlink:href="#DejaVuSans-35"/>
      </g>
     </g>
    </g>
    <g id="ytick_6">
     <g id="line2d_25">
      <path clip-path="url(#p24bc209865)" d="M 90 77.536697 
L 648 77.536697 
" style="fill:none;stroke:#ffffff;stroke-linecap:square;stroke-width:0.8;"/>
     </g>
     <g id="line2d_26">
      <g>
       <use style="fill:#555555;stroke:#555555;stroke-width:0.8;" x="90" xlink:href="#m543f533aec" y="77.536697"/>
      </g>
     </g>
     <g id="text_13">
      <!-- 10 -->
      <g style="fill:#555555;" transform="translate(70.275 81.335916)scale(0.1 -0.1)">
       <use xlink:href="#DejaVuSans-31"/>
       <use x="63.623047" xlink:href="#DejaVuSans-30"/>
      </g>
     </g>
    </g>
   </g>
   <g id="line2d_27">
    <path clip-path="url(#p24bc209865)" d="M 115.363636 237.984413 
L 115.585735 237.43863 
L 116.25203 237.382867 
L 116.474128 237.255074 
L 116.918325 237.462916 
L 122.692883 237.435665 
L 123.359178 237.452864 
L 125.580162 237.42669 
L 126.690654 237.462634 
L 127.134851 237.402864 
L 127.801146 237.421978 
L 131.132622 237.432531 
L 152.454068 237.438872 
L 152.676166 237.293588 
L 152.898265 237.37761 
L 153.120363 237.325028 
L 153.342461 237.486199 
L 153.786658 237.386096 
L 154.452953 237.46293 
L 156.22974 237.364593 
L 156.451839 237.184438 
L 156.673937 237.31572 
L 156.896036 236.986919 
L 157.118134 237.553673 
L 157.784429 237.410875 
L 158.006528 237.694307 
L 158.228626 237.579176 
L 158.450724 237.246291 
L 158.672823 237.330385 
L 158.894921 237.534376 
L 159.339118 237.157243 
L 159.561216 237.432766 
L 159.783315 237.243969 
L 160.005413 237.460891 
L 160.227512 237.475167 
L 160.44961 237.284492 
L 160.893807 237.460805 
L 161.115905 237.059087 
L 161.338004 237.199183 
L 162.004299 237.25855 
L 162.226397 237.319166 
L 162.448495 237.932113 
L 162.892692 236.855437 
L 163.114791 237.588872 
L 163.336889 237.486005 
L 163.558987 236.74455 
L 163.781086 237.163118 
L 164.003184 237.985413 
L 164.225283 237.26973 
L 164.669479 237.823678 
L 164.891578 237.4475 
L 165.113676 237.554028 
L 165.335775 237.48287 
L 165.557873 236.995946 
L 165.779971 237.587845 
L 166.00207 237.107579 
L 166.224168 237.752188 
L 166.668365 237.360335 
L 166.890463 237.578274 
L 167.112562 237.078589 
L 167.33466 237.426915 
L 167.556758 237.342108 
L 167.778857 237.576777 
L 168.000955 237.352206 
L 168.889349 237.623882 
L 169.111447 237.355757 
L 169.333546 237.595169 
L 169.555644 237.52149 
L 169.777742 237.582205 
L 170.221939 237.505522 
L 170.444038 237.757675 
L 170.666136 237.257327 
L 171.110333 237.464439 
L 171.55453 237.230281 
L 171.776628 237.500126 
L 172.665021 237.502292 
L 172.88712 237.292997 
L 173.109218 237.505768 
L 173.331317 237.548372 
L 173.775513 237.32368 
L 173.997612 237.587329 
L 174.441809 237.047993 
L 174.663907 237.415341 
L 174.886005 237.059087 
L 175.108104 237.660704 
L 175.330202 237.395928 
L 175.552301 237.309975 
L 175.774399 237.557374 
L 176.218596 237.393176 
L 176.440694 237.475741 
L 176.884891 237.248269 
L 177.106989 237.407296 
L 177.329088 237.299858 
L 177.551186 237.498406 
L 177.773285 237.501305 
L 177.995383 237.088978 
L 178.217481 237.139316 
L 178.43958 237.04713 
L 178.661678 237.088382 
L 178.883776 237.738983 
L 179.105875 237.31911 
L 179.327973 237.349155 
L 179.550072 237.653122 
L 179.77217 237.626656 
L 180.216367 237.450884 
L 180.438465 237.739121 
L 180.660564 237.258717 
L 181.10476 237.320359 
L 181.326859 237.049294 
L 181.548957 237.445391 
L 181.771056 237.497463 
L 181.993154 237.394208 
L 182.215252 237.453852 
L 182.437351 237.359281 
L 182.659449 237.435709 
L 182.881548 237.264043 
L 183.103646 237.450524 
L 183.325744 237.429662 
L 183.547843 237.560298 
L 184.214138 236.908643 
L 184.436236 237.066355 
L 184.658335 237.573864 
L 184.880433 236.804528 
L 185.102531 238.870211 
L 185.32463 238.546824 
L 185.546728 237.173716 
L 185.768827 237.53386 
L 185.990925 237.017335 
L 186.213023 237.483064 
L 186.435122 237.263155 
L 186.65722 237.242404 
L 187.101417 237.54443 
L 187.323515 237.415014 
L 187.545614 237.898276 
L 187.767712 237.30352 
L 188.211909 237.497046 
L 188.434007 237.444087 
L 188.656106 237.537605 
L 188.878204 237.493495 
L 189.100302 237.662832 
L 189.322401 237.44725 
L 189.544499 237.54074 
L 189.766598 237.067825 
L 189.988696 237.543403 
L 190.210794 237.429329 
L 190.432893 237.55991 
L 190.654991 237.408522 
L 190.87709 237.428691 
L 191.099188 237.143422 
L 191.765483 237.561435 
L 192.431778 237.19369 
L 192.653877 237.368852 
L 192.875975 236.86642 
L 193.320172 237.854416 
L 193.54227 237.122921 
L 193.764369 237.936643 
L 193.986467 237.151578 
L 194.208566 237.460205 
L 194.652762 237.516909 
L 195.096959 237.683555 
L 195.319057 238.02201 
L 195.541156 237.006399 
L 195.985353 237.456932 
L 196.651648 237.331761 
L 196.873746 237.14725 
L 197.095845 237.45241 
L 197.317943 237.549839 
L 197.540041 237.400061 
L 197.984238 237.528811 
L 198.206337 237.417816 
L 199.09473 237.426416 
L 199.316829 237.286014 
L 199.538927 237.443283 
L 201.537812 237.356368 
L 201.982009 237.334896 
L 202.648304 237.446224 
L 203.092501 237.432103 
L 203.536698 237.480402 
L 203.980895 237.281298 
L 204.202993 237.571422 
L 204.425092 237.353538 
L 204.869288 237.423115 
L 205.091387 237.420534 
L 205.313485 237.252697 
L 205.757682 237.498544 
L 206.201879 237.080004 
L 206.423977 237.607958 
L 206.646075 237.56887 
L 206.868174 237.401143 
L 207.090272 237.550144 
L 207.312371 237.362499 
L 207.534469 237.50143 
L 207.756567 237.348018 
L 208.867059 237.416873 
L 209.089158 237.354259 
L 209.533355 237.491304 
L 211.754338 237.411824 
L 212.198535 237.409549 
L 212.420634 237.26249 
L 212.642732 237.581354 
L 212.86483 237.403168 
L 213.753224 237.44295 
L 213.975322 237.57833 
L 214.197421 237.391628 
L 214.863716 237.602049 
L 215.085814 237.219573 
L 215.307913 237.475574 
L 215.974208 237.410936 
L 216.196306 237.343995 
L 216.640503 237.46015 
L 217.528897 237.460705 
L 217.973093 237.538642 
L 218.195192 237.362349 
L 218.41729 237.46182 
L 218.639389 237.354726 
L 218.861487 237.468306 
L 219.083585 237.443205 
L 219.305684 237.567239 
L 219.527782 237.372597 
L 219.971979 237.412839 
L 220.194077 237.345327 
L 220.638274 237.594129 
L 220.860373 237.377097 
L 221.748766 237.577137 
L 221.970865 237.309673 
L 222.415061 237.616486 
L 222.63716 237.379593 
L 223.081356 237.596922 
L 223.303455 237.133831 
L 223.747652 237.466245 
L 223.96975 237.364579 
L 224.191848 237.513372 
L 224.636045 237.333206 
L 225.080242 237.468089 
L 225.30234 237.545528 
L 225.524439 237.416113 
L 227.967521 237.453012 
L 228.411718 237.212402 
L 228.633816 237.458813 
L 228.855915 237.477316 
L 229.744308 237.000926 
L 229.966407 237.701004 
L 230.188505 237.42428 
L 230.410603 237.531865 
L 230.632702 237.307123 
L 230.8548 237.414431 
L 231.076899 237.362221 
L 231.298997 237.65513 
L 231.521095 237.384534 
L 231.965292 237.458441 
L 232.187391 237.3529 
L 232.409489 237.498644 
L 232.631587 237.239658 
L 232.853686 237.445031 
L 233.519981 237.338752 
L 233.742079 237.481511 
L 233.964178 237.391739 
L 234.186276 237.476601 
L 235.07467 237.416679 
L 235.518866 237.400172 
L 236.629358 237.335866 
L 236.851457 237.446695 
L 237.517752 237.447694 
L 237.73985 237.535053 
L 237.961949 237.355924 
L 238.628244 237.460344 
L 238.850342 236.9373 
L 239.072441 237.453631 
L 239.960834 237.438705 
L 240.182933 237.515467 
L 240.405031 237.358254 
L 240.627129 237.443422 
L 240.849228 237.280189 
L 241.071326 237.438289 
L 241.515523 237.154907 
L 241.95972 237.307653 
L 242.181818 236.999219 
L 242.403917 236.958162 
L 242.848113 237.657422 
L 243.070212 237.234776 
L 243.29231 237.340194 
L 243.736507 238.04503 
L 243.958605 237.11826 
L 244.402802 236.830633 
L 244.6249 236.879181 
L 244.846999 235.994218 
L 245.069097 237.407246 
L 245.513294 234.292341 
L 245.957491 240.93864 
L 246.179589 234.489307 
L 246.401688 237.798849 
L 246.623786 237.492359 
L 246.845884 237.64713 
L 247.067983 237.053649 
L 247.290081 234.80856 
L 247.51218 237.939666 
L 247.734278 237.626435 
L 247.956376 237.661472 
L 248.400573 236.772098 
L 248.622672 237.679671 
L 248.84477 238.025944 
L 249.066868 237.240656 
L 249.511065 238.642866 
L 249.733164 237.34516 
L 249.955262 237.240684 
L 250.17736 237.996372 
L 250.399459 237.723835 
L 250.621557 236.829441 
L 250.843655 237.712905 
L 251.065754 237.377701 
L 251.287852 237.432131 
L 251.509951 236.625371 
L 251.732049 236.333528 
L 251.954147 238.158216 
L 252.176246 237.000634 
L 252.398344 237.530615 
L 252.620443 237.539186 
L 252.842541 236.757755 
L 253.064639 238.090776 
L 253.286738 237.045161 
L 253.508836 237.826009 
L 253.730935 237.333203 
L 253.953033 237.442035 
L 254.175131 236.996528 
L 254.39723 237.463285 
L 254.619328 236.63952 
L 254.841427 234.803483 
L 255.063525 235.207376 
L 255.285623 237.918806 
L 255.507722 234.471441 
L 255.72982 238.180107 
L 255.951918 237.156154 
L 256.174017 236.743468 
L 256.396115 232.63524 
L 256.618214 238.140906 
L 256.840312 236.47698 
L 257.06241 238.480271 
L 257.284509 238.142015 
L 257.506607 237.495798 
L 257.728706 237.878774 
L 257.950804 237.325936 
L 258.172902 237.764005 
L 258.395001 236.819591 
L 258.617099 237.43793 
L 258.839198 236.972615 
L 259.061296 238.250208 
L 259.283394 237.307183 
L 259.505493 235.469701 
L 259.727591 228.374794 
L 259.94969 238.258279 
L 260.171788 228.708999 
L 260.615985 235.290742 
L 260.838083 235.178938 
L 261.060181 241.752086 
L 261.28228 241.320145 
L 262.170673 227.15934 
L 262.392772 237.768913 
L 262.61487 239.762999 
L 262.836969 236.99825 
L 263.059067 237.257631 
L 263.281165 231.610792 
L 263.503264 236.555488 
L 263.725362 232.985119 
L 263.947461 239.198448 
L 264.169559 236.427053 
L 264.391657 231.856301 
L 264.613756 221.908093 
L 264.835854 236.608474 
L 265.057953 220.534879 
L 265.502149 248.100514 
L 265.724248 236.625398 
L 265.946346 235.123464 
L 266.168445 234.87572 
L 266.390543 239.631499 
L 266.612641 237.813305 
L 267.056838 243.564456 
L 267.278936 237.563351 
L 267.501035 235.93518 
L 267.723133 242.429817 
L 267.945232 243.097015 
L 268.16733 245.901149 
L 268.389428 231.766137 
L 268.611527 227.759398 
L 268.833625 244.372023 
L 269.055724 239.634556 
L 269.277822 243.060103 
L 269.49992 233.710848 
L 269.722019 238.83614 
L 269.944117 240.08619 
L 270.388314 236.931939 
L 270.610412 244.2372 
L 270.832511 235.841413 
L 271.276708 244.853618 
L 271.498806 242.404846 
L 271.720904 228.166923 
L 271.943003 243.261517 
L 272.165101 240.21824 
L 272.387199 245.47143 
L 272.609298 241.111802 
L 272.831396 227.420393 
L 273.053495 226.059374 
L 273.275593 247.047442 
L 273.497691 229.778167 
L 273.71979 239.910031 
L 273.941888 234.325324 
L 274.163987 238.40226 
L 274.386085 237.768363 
L 274.608183 242.418163 
L 274.830282 238.189206 
L 275.05238 237.323108 
L 275.274479 240.530056 
L 275.496577 233.910586 
L 275.718675 239.591277 
L 276.162872 231.072045 
L 276.384971 239.315522 
L 276.607069 235.92908 
L 276.829167 238.053824 
L 277.051266 228.14917 
L 277.273364 236.020628 
L 277.495463 235.312377 
L 277.717561 229.77067 
L 277.939659 237.630208 
L 278.161758 237.461817 
L 278.383856 233.825692 
L 278.828053 240.902358 
L 279.050151 236.860375 
L 279.27225 240.275941 
L 279.494348 233.970784 
L 279.716446 237.649071 
L 279.938545 239.051976 
L 280.160643 236.902816 
L 280.382742 236.32634 
L 280.60484 231.830784 
L 280.826938 239.31247 
L 281.271135 235.179501 
L 281.493234 235.675515 
L 281.715332 236.878687 
L 281.93743 233.537454 
L 282.159529 237.464865 
L 282.381627 231.065946 
L 282.603726 235.25551 
L 282.825824 236.160167 
L 283.047922 236.120774 
L 283.270021 248.176252 
L 283.492119 237.84049 
L 283.714217 251.936939 
L 283.936316 232.481601 
L 284.158414 231.501486 
L 284.602611 246.560017 
L 284.824709 238.004724 
L 285.046808 238.993991 
L 285.268906 235.819498 
L 285.713103 241.405864 
L 285.935201 254.958293 
L 286.1573 227.283068 
L 286.379398 238.517945 
L 286.601497 235.974302 
L 286.823595 225.842709 
L 287.045693 240.390801 
L 287.267792 237.16414 
L 287.48989 244.404761 
L 287.934087 231.360558 
L 288.156185 238.446648 
L 288.378284 234.692073 
L 288.600382 238.78205 
L 288.82248 232.145368 
L 289.044579 239.452847 
L 289.266677 239.55715 
L 289.488776 234.650741 
L 289.932972 238.773169 
L 290.155071 238.81478 
L 290.821366 233.894216 
L 291.043464 236.720836 
L 291.265563 238.122344 
L 291.487661 240.535885 
L 291.70976 236.736922 
L 291.931858 236.429542 
L 292.153956 237.235721 
L 292.376055 227.819871 
L 292.598153 237.182731 
L 292.820252 238.265769 
L 293.04235 238.315152 
L 293.264448 241.946833 
L 293.486547 238.190869 
L 293.708645 239.152951 
L 293.930744 238.556784 
L 294.152842 238.483823 
L 294.37494 238.739601 
L 294.597039 239.781307 
L 294.819137 234.267903 
L 295.041235 237.536167 
L 295.263334 237.812188 
L 295.485432 237.175797 
L 295.707531 237.736458 
L 295.929629 234.985856 
L 296.373826 237.943692 
L 296.595924 241.359538 
L 296.818023 238.607555 
L 297.040121 232.352602 
L 297.262219 238.87859 
L 297.484318 238.591182 
L 297.706416 236.695031 
L 297.928515 238.598674 
L 298.150613 233.426488 
L 298.372711 234.146947 
L 298.59481 243.425196 
L 298.816908 233.144354 
L 299.039007 239.303318 
L 299.483203 231.622162 
L 299.705302 238.610053 
L 299.9274 238.099316 
L 300.149498 237.016558 
L 300.371597 233.202618 
L 300.593695 235.545137 
L 300.815794 233.999907 
L 301.037892 239.180145 
L 301.25999 231.806368 
L 301.482089 229.236652 
L 301.704187 219.462923 
L 301.926286 239.819871 
L 302.148384 236.022296 
L 302.370482 234.920658 
L 302.592581 239.491961 
L 302.814679 250.013317 
L 303.036778 231.989465 
L 303.258876 232.035241 
L 303.480974 238.281863 
L 303.703073 236.757452 
L 303.925171 236.217313 
L 304.14727 239.344929 
L 304.369368 247.048826 
L 304.591466 235.809796 
L 304.813565 231.425748 
L 305.035663 232.57759 
L 305.257762 246.240988 
L 305.701958 199.613655 
L 306.146155 239.35271 
L 306.368253 240.578046 
L 306.81245 230.831248 
L 307.034549 216.709544 
L 307.478745 239.570746 
L 307.700844 236.87591 
L 307.922942 277.983717 
L 308.145041 225.071758 
L 308.367139 244.426121 
L 308.589237 217.537379 
L 308.811336 235.20446 
L 309.255533 244.587012 
L 309.477631 232.827831 
L 309.699729 247.504338 
L 309.921828 226.473021 
L 310.143926 233.011191 
L 310.366025 206.408197 
L 310.588123 215.709186 
L 310.810221 232.374792 
L 311.03232 232.764302 
L 311.254418 225.229042 
L 311.476516 206.495025 
L 311.698615 238.711587 
L 311.920713 195.475988 
L 312.142812 249.608577 
L 312.36491 265.413042 
L 312.587008 204.614157 
L 312.809107 203.240883 
L 313.031205 245.649815 
L 313.253304 258.189098 
L 313.475402 303.513697 
L 313.6975 248.365715 
L 313.919599 231.312835 
L 314.141697 236.642059 
L 314.363796 205.229983 
L 314.585894 266.711407 
L 314.807992 250.274353 
L 315.030091 242.149072 
L 315.252189 217.297398 
L 315.474288 238.187263 
L 315.696386 237.662938 
L 315.918484 223.026392 
L 316.140583 198.879879 
L 316.362681 255.08203 
L 316.584779 268.281569 
L 316.806878 224.335764 
L 317.028976 260.039489 
L 317.251075 270.993354 
L 317.473173 224.043377 
L 317.695271 273.304776 
L 317.91737 275.356018 
L 318.139468 211.022202 
L 318.361567 247.426398 
L 318.583665 220.574263 
L 318.805763 219.098685 
L 319.027862 243.92982 
L 319.24996 250.117628 
L 319.472059 222.43075 
L 319.694157 243.929532 
L 319.916255 215.701702 
L 320.138354 233.702789 
L 320.360452 235.417518 
L 320.582551 229.128184 
L 320.804649 251.349077 
L 321.026747 231.891545 
L 321.248846 250.87748 
L 321.470944 250.019133 
L 321.693043 247.723796 
L 321.915141 223.180594 
L 322.137239 243.991961 
L 322.581436 230.626232 
L 322.803534 234.941468 
L 323.025633 243.823299 
L 323.247731 232.707968 
L 323.46983 241.681894 
L 323.914026 234.801929 
L 324.580322 255.212408 
L 324.80242 250.805619 
L 325.024518 230.677554 
L 325.246617 249.083135 
L 325.468715 227.312759 
L 325.690814 243.945906 
L 325.912912 239.922226 
L 326.13501 258.656835 
L 326.357109 238.253011 
L 326.579207 240.098118 
L 326.801306 250.986507 
L 327.245502 232.408081 
L 327.467601 237.299809 
L 327.689699 236.160167 
L 327.911797 243.535874 
L 328.133896 237.447391 
L 328.355994 241.080731 
L 328.578093 238.021377 
L 328.800191 246.949789 
L 329.022289 248.475309 
L 329.244388 238.488818 
L 329.466486 254.155725 
L 329.688585 235.017206 
L 329.910683 236.921678 
L 330.132781 242.098859 
L 330.576978 228.971984 
L 330.799077 247.508511 
L 331.021175 236.678387 
L 331.243273 241.016092 
L 331.465372 233.255049 
L 331.68747 233.209273 
L 331.909569 237.974204 
L 332.131667 233.06418 
L 332.353765 232.903282 
L 332.575864 220.113198 
L 332.797962 237.481518 
L 333.02006 234.998894 
L 333.242159 229.039671 
L 333.464257 243.126698 
L 333.686356 239.713892 
L 334.130552 225.467651 
L 334.352651 224.155723 
L 334.574749 240.288149 
L 334.796848 232.856684 
L 335.018946 231.685141 
L 335.241044 219.222951 
L 335.463143 263.15267 
L 335.685241 224.276687 
L 335.90734 241.801198 
L 336.129438 227.258102 
L 336.573635 242.683369 
L 336.795733 236.400977 
L 337.017832 233.669229 
L 337.23993 211.792586 
L 337.462028 235.737385 
L 337.684127 228.964229 
L 337.906225 244.029415 
L 338.128324 248.128816 
L 338.350422 237.665157 
L 338.57252 237.585812 
L 339.016717 250.654702 
L 339.460914 224.261431 
L 339.683012 238.241903 
L 339.905111 243.438243 
L 340.127209 237.929537 
L 340.349307 246.965604 
L 340.571406 231.401611 
L 340.793504 236.824301 
L 341.015603 232.198087 
L 341.459799 251.70611 
L 341.681898 255.222398 
L 341.903996 232.383681 
L 342.126095 241.591459 
L 342.348193 237.272887 
L 342.570291 241.477996 
L 342.79239 253.135108 
L 343.014488 223.733229 
L 343.236587 239.032826 
L 343.458685 232.415582 
L 343.680783 236.759112 
L 343.902882 234.160552 
L 344.12498 230.066959 
L 344.347078 244.455245 
L 344.569177 232.897457 
L 344.791275 238.028844 
L 345.013374 237.961725 
L 345.235472 238.564547 
L 345.45757 238.399491 
L 345.679669 257.144074 
L 345.901767 235.536535 
L 346.123866 247.533757 
L 346.345964 242.792125 
L 346.568062 225.704 
L 346.790161 245.396805 
L 347.012259 235.028026 
L 347.234358 237.200764 
L 347.456456 232.307943 
L 347.678554 232.135116 
L 347.900653 237.892912 
L 348.122751 239.893661 
L 348.34485 254.49945 
L 348.566948 235.009993 
L 348.789046 242.0983 
L 349.011145 236.692534 
L 349.233243 245.0639 
L 349.455342 234.763095 
L 349.67744 242.972724 
L 349.899538 233.639267 
L 350.121637 232.105984 
L 350.343735 237.774463 
L 350.565833 231.479575 
L 350.787932 240.518123 
L 351.01003 236.55799 
L 351.232129 235.456361 
L 351.454227 237.535328 
L 351.676325 232.528486 
L 351.898424 238.129287 
L 352.120522 240.874606 
L 352.342621 249.147494 
L 352.564719 234.06927 
L 352.786817 241.986226 
L 353.008916 236.327728 
L 353.231014 236.853162 
L 353.675211 228.877672 
L 353.897309 231.780563 
L 354.119408 243.108385 
L 354.341506 240.446559 
L 354.563605 242.673387 
L 354.785703 234.168028 
L 355.007801 238.195305 
L 355.2299 239.866756 
L 355.451998 229.512403 
L 355.674096 239.332992 
L 355.896195 239.770217 
L 356.118293 235.862777 
L 356.340392 238.192249 
L 356.56249 237.489002 
L 357.006687 243.864343 
L 357.228785 241.064087 
L 357.450884 239.678664 
L 357.672982 235.85945 
L 357.89508 240.47873 
L 358.117179 236.518877 
L 358.339277 238.494642 
L 358.561376 244.760127 
L 358.783474 243.971981 
L 359.005572 234.934534 
L 359.227671 246.138624 
L 359.449769 240.771133 
L 359.671868 238.129557 
L 359.893966 246.599969 
L 360.116064 239.522473 
L 360.338163 236.472262 
L 360.560261 235.84808 
L 360.782359 229.744595 
L 361.004458 242.949696 
L 361.226556 236.031169 
L 361.448655 244.781216 
L 361.670753 235.307941 
L 361.892851 240.365826 
L 362.11495 235.825602 
L 362.337048 235.797859 
L 362.559147 238.345672 
L 362.781245 238.658597 
L 363.003343 234.537549 
L 363.225442 234.401617 
L 363.44754 239.418161 
L 363.669639 238.868879 
L 363.891737 237.729804 
L 364.113835 234.001855 
L 364.335934 237.693459 
L 364.558032 238.842524 
L 364.780131 238.405316 
L 365.002229 252.236268 
L 365.224327 238.011379 
L 365.668524 242.765215 
L 365.890623 237.709274 
L 366.112721 237.381363 
L 366.334819 240.756986 
L 366.556918 237.905683 
L 366.779016 229.650274 
L 367.001114 237.314786 
L 367.223213 234.2826 
L 367.66741 243.725638 
L 367.889508 234.067603 
L 368.111606 237.426031 
L 368.555803 231.323108 
L 368.777902 239.117724 
L 369 236.356302 
L 369.222098 241.752086 
L 369.666295 238.161741 
L 369.888394 233.915856 
L 370.110492 239.114397 
L 370.33259 234.862961 
L 370.554689 237.087851 
L 370.776787 238.001393 
L 370.998886 238.419463 
L 371.220984 239.280845 
L 371.443082 236.944706 
L 371.665181 235.931023 
L 371.887279 238.112638 
L 372.331476 236.554379 
L 372.553574 237.777519 
L 372.775673 238.038288 
L 372.997771 247.486317 
L 373.219869 235.419182 
L 373.441968 236.560484 
L 373.664066 238.568992 
L 373.886165 233.543562 
L 374.108263 237.308957 
L 374.330361 238.266882 
L 374.55246 238.459406 
L 374.774558 237.320331 
L 374.996657 236.951923 
L 375.218755 237.504258 
L 375.440853 237.728966 
L 375.662952 237.343359 
L 376.107149 237.738681 
L 376.329247 237.255138 
L 376.773444 237.10367 
L 376.995542 239.676721 
L 377.217641 237.338639 
L 377.439739 237.472912 
L 377.661837 237.010733 
L 377.883936 236.935275 
L 378.106034 237.548921 
L 378.328132 235.399214 
L 378.550231 236.979104 
L 378.772329 234.827455 
L 378.994428 237.776406 
L 379.216526 238.798136 
L 379.438624 238.022753 
L 379.660723 236.742192 
L 379.882821 237.755325 
L 380.10492 237.680142 
L 380.327018 238.420847 
L 380.549116 244.478827 
L 380.771215 237.588318 
L 380.993313 238.985949 
L 381.43751 236.573801 
L 381.659608 245.162107 
L 381.881707 242.649809 
L 382.103805 235.659429 
L 382.325904 240.197157 
L 382.548002 238.37036 
L 382.7701 240.143613 
L 382.992199 236.604317 
L 383.214297 239.67561 
L 383.658494 233.976611 
L 383.880592 238.782423 
L 384.102691 238.637021 
L 384.324789 235.908511 
L 384.768986 239.494979 
L 384.991084 237.066724 
L 385.213183 239.571199 
L 385.435281 240.396759 
L 385.657379 236.99894 
L 385.879478 237.739212 
L 386.101576 236.596985 
L 386.323675 238.383232 
L 386.545773 238.184585 
L 386.767871 236.967179 
L 386.98997 238.549012 
L 387.656265 237.196523 
L 387.878363 234.685768 
L 388.32256 237.381052 
L 388.544658 233.277436 
L 388.766757 239.28879 
L 388.988855 235.409401 
L 389.210954 233.538912 
L 389.433052 234.796452 
L 389.65515 240.307752 
L 389.877249 236.863622 
L 390.099347 241.666007 
L 390.321446 231.578857 
L 390.543544 237.321351 
L 390.765642 236.913606 
L 390.987741 239.225138 
L 391.209839 235.357277 
L 391.431938 233.477183 
L 391.654036 239.064646 
L 391.876134 235.913286 
L 392.098233 237.131227 
L 392.320331 236.839675 
L 392.54243 239.101905 
L 392.764528 237.795988 
L 392.986626 237.301333 
L 393.208725 243.576922 
L 393.430823 237.723103 
L 393.652922 237.863181 
L 393.87502 239.940191 
L 394.097118 234.047929 
L 394.319217 239.376279 
L 394.541315 237.004255 
L 394.763413 237.370307 
L 394.985512 238.182174 
L 395.20761 236.45097 
L 395.429709 238.823712 
L 395.873905 236.983352 
L 396.096004 237.783604 
L 396.318102 237.449253 
L 396.540201 237.697493 
L 396.762299 237.393737 
L 397.206496 239.315055 
L 397.650693 236.506296 
L 397.872791 237.936623 
L 398.316988 236.641913 
L 398.539086 238.239304 
L 398.761185 237.333111 
L 398.983283 237.52925 
L 399.205381 238.12463 
L 399.42748 237.530888 
L 399.649578 233.337317 
L 399.871676 237.379105 
L 400.093775 235.933074 
L 400.315873 238.397572 
L 400.537972 237.070961 
L 400.982168 237.747111 
L 401.204267 237.227346 
L 401.426365 237.102606 
L 401.648464 234.556232 
L 401.870562 233.956777 
L 402.09266 237.633032 
L 402.314759 236.256947 
L 402.536857 238.374102 
L 402.981054 234.732583 
L 403.203152 243.7891 
L 403.425251 236.322958 
L 403.647349 237.90518 
L 403.869448 237.969133 
L 404.091546 237.252285 
L 404.313644 237.508317 
L 404.535743 238.044854 
L 404.757841 237.967418 
L 404.97994 238.665891 
L 405.202038 234.636793 
L 405.424136 237.156109 
L 405.868333 238.230935 
L 406.090431 236.636979 
L 406.31253 237.759109 
L 406.534628 238.235714 
L 406.756727 237.255455 
L 406.978825 237.751663 
L 407.200923 237.299936 
L 407.423022 236.320185 
L 407.64512 236.118725 
L 407.867219 238.089508 
L 408.311415 237.106832 
L 408.533514 237.37799 
L 408.755612 238.547987 
L 408.977711 237.273065 
L 409.199809 237.130736 
L 409.421907 237.771952 
L 409.644006 237.966966 
L 409.866104 237.305257 
L 410.088203 235.890851 
L 410.310301 237.860377 
L 410.532399 236.569652 
L 410.754498 237.536645 
L 410.976596 237.584872 
L 411.198694 237.336637 
L 411.420793 231.284706 
L 411.642891 238.118725 
L 411.86499 238.369322 
L 412.087088 235.354183 
L 412.309186 237.304419 
L 412.531285 235.042884 
L 412.753383 235.835542 
L 412.975482 238.57405 
L 413.19758 237.085108 
L 413.419678 240.709119 
L 413.641777 237.635394 
L 413.863875 237.486221 
L 414.085974 236.501902 
L 414.308072 239.162205 
L 414.53017 235.746186 
L 414.752269 237.610978 
L 414.974367 235.520369 
L 415.196466 237.453656 
L 415.418564 237.412481 
L 415.640662 238.452125 
L 415.862761 236.917204 
L 416.084859 237.542783 
L 416.529056 240.577691 
L 416.751154 236.900682 
L 416.973253 236.845157 
L 417.195351 237.740581 
L 417.417449 238.005021 
L 417.639548 235.492414 
L 417.861646 237.798236 
L 418.083745 237.062487 
L 418.305843 235.807121 
L 418.527941 238.513458 
L 418.75004 237.584123 
L 418.972138 234.871419 
L 419.194237 238.216268 
L 419.416335 237.105469 
L 419.638433 237.607142 
L 419.860532 236.632767 
L 420.08263 231.553755 
L 420.304729 239.360469 
L 420.748925 231.79214 
L 420.971024 229.100576 
L 421.193122 232.747941 
L 421.415221 243.040809 
L 421.637319 239.968108 
L 421.859417 230.01814 
L 422.081516 240.039804 
L 422.303614 236.494604 
L 422.525712 240.34196 
L 422.747811 237.072942 
L 422.969909 236.448041 
L 423.192008 236.793268 
L 423.414106 233.177157 
L 423.858303 237.72784 
L 424.080401 238.066036 
L 424.3025 241.196344 
L 424.524598 234.024713 
L 424.746696 238.179575 
L 424.968795 236.083252 
L 425.190893 242.311803 
L 425.412992 240.550624 
L 425.63509 235.83969 
L 425.857188 236.752089 
L 426.079287 237.020436 
L 426.523484 240.934089 
L 426.745582 233.42027 
L 426.96768 237.906598 
L 427.189779 233.229397 
L 427.411877 238.737798 
L 427.633975 235.227581 
L 427.856074 236.056177 
L 428.078172 237.367801 
L 428.300271 236.001791 
L 428.522369 240.004144 
L 428.744467 236.209287 
L 428.966566 236.796506 
L 429.188664 230.984027 
L 429.410763 233.410115 
L 429.632861 237.85506 
L 430.077058 235.287792 
L 430.299156 232.256935 
L 430.521255 249.210618 
L 430.743353 232.719778 
L 430.965451 234.973986 
L 431.18755 245.570166 
L 431.409648 236.607331 
L 431.631747 237.991593 
L 431.853845 234.233073 
L 432.075943 242.577889 
L 432.298042 236.460528 
L 432.52014 237.549315 
L 432.742238 232.38827 
L 433.630632 243.33289 
L 433.85273 235.32357 
L 434.074829 239.315772 
L 434.296927 249.042836 
L 434.519026 236.814615 
L 434.741124 245.90984 
L 434.963222 234.013149 
L 435.185321 233.240568 
L 435.407419 238.87602 
L 435.629518 235.264442 
L 435.851616 238.392122 
L 436.073714 239.663336 
L 436.295813 238.764708 
L 436.517911 236.226512 
L 436.962108 237.421142 
L 437.184206 240.814772 
L 437.406305 236.37621 
L 437.628403 237.401754 
L 437.850502 237.631165 
L 438.0726 235.168525 
L 438.294698 237.658976 
L 438.516797 237.406851 
L 438.738895 236.143031 
L 438.960993 237.374599 
L 439.183092 234.221487 
L 439.40519 239.697632 
L 439.627289 237.321618 
L 440.071485 240.324202 
L 440.293584 238.466171 
L 440.515682 234.827916 
L 440.737781 238.7573 
L 440.959879 238.139831 
L 441.181977 243.555664 
L 441.404076 236.898845 
L 441.626174 238.273812 
L 441.848273 237.355673 
L 442.070371 234.981462 
L 442.292469 235.03901 
L 442.514568 239.234937 
L 442.736666 240.108045 
L 442.958765 236.19227 
L 443.180863 236.488551 
L 443.402961 238.372201 
L 443.62506 238.658089 
L 443.847158 236.845394 
L 444.069256 237.816277 
L 444.291355 241.204654 
L 444.513453 238.637576 
L 444.95765 236.415971 
L 445.179748 237.657495 
L 445.401847 235.560689 
L 445.846044 238.397113 
L 446.068142 237.91699 
L 446.29024 238.606429 
L 446.512339 235.120006 
L 446.956536 237.48153 
L 447.178634 237.802287 
L 447.400732 237.718891 
L 447.622831 236.788908 
L 447.844929 237.398389 
L 448.067028 235.483605 
L 448.289126 236.957299 
L 448.733323 234.235283 
L 448.955421 236.651952 
L 449.17752 234.681304 
L 449.399618 238.320646 
L 449.621716 238.127297 
L 449.843815 238.525942 
L 450.065913 240.094254 
L 450.288011 246.804028 
L 450.51011 236.652595 
L 450.732208 238.579968 
L 450.954307 235.209493 
L 451.176405 237.462676 
L 451.398503 238.553291 
L 451.620602 234.825308 
L 451.8427 238.126726 
L 452.064799 236.48944 
L 452.286897 238.953261 
L 452.508995 236.928989 
L 452.953192 238.337727 
L 453.175291 235.169732 
L 453.397389 237.192658 
L 453.619487 234.29739 
L 454.063684 239.946088 
L 454.285783 237.907914 
L 454.729979 236.068966 
L 454.952078 238.965376 
L 455.174176 238.920357 
L 455.396274 236.865408 
L 455.618373 238.646948 
L 456.06257 236.697152 
L 456.506766 238.151235 
L 456.728865 240.170267 
L 456.950963 237.489345 
L 457.173062 232.055031 
L 457.39516 237.892569 
L 457.617258 236.201854 
L 457.839357 237.862519 
L 458.061455 235.293858 
L 458.283554 238.991888 
L 458.505652 237.62556 
L 458.72775 237.423537 
L 458.949849 237.436618 
L 459.171947 237.840685 
L 459.394046 236.334061 
L 459.838242 236.789166 
L 460.060341 238.427866 
L 460.282439 238.468863 
L 460.726636 236.190251 
L 460.948734 238.530606 
L 461.170833 237.048801 
L 461.392931 237.031725 
L 461.837128 238.944185 
L 462.059226 236.640052 
L 462.281325 236.93309 
L 462.503423 238.689287 
L 462.94762 237.911843 
L 463.169718 241.373583 
L 463.391817 240.529933 
L 463.613915 236.550604 
L 463.836013 240.360302 
L 464.058112 236.414053 
L 464.28021 236.733997 
L 464.502309 236.302072 
L 464.724407 237.78306 
L 464.946505 236.429381 
L 465.168604 238.191276 
L 465.390702 237.799975 
L 465.612801 238.014312 
L 465.834899 237.730282 
L 466.056997 237.759672 
L 466.279096 236.730471 
L 466.501194 237.439496 
L 466.723292 237.542622 
L 466.945391 236.73177 
L 467.167489 238.267589 
L 467.389588 237.967584 
L 467.611686 238.162029 
L 467.833784 236.870636 
L 468.277981 238.000148 
L 468.50008 237.356185 
L 468.722178 240.060101 
L 468.944276 240.478775 
L 469.166375 234.514718 
L 469.388473 238.470522 
L 469.610572 237.495127 
L 469.83267 237.683778 
L 470.054768 236.247677 
L 470.276867 238.467017 
L 470.498965 237.299581 
L 470.721064 238.148217 
L 470.943162 237.450278 
L 471.16526 237.187618 
L 471.387359 237.116956 
L 471.609457 235.639102 
L 471.831555 238.013737 
L 472.053654 238.262895 
L 472.275752 237.093917 
L 472.497851 238.365316 
L 472.719949 235.548593 
L 472.942047 237.175336 
L 473.164146 237.089405 
L 473.386244 235.197424 
L 473.608343 237.635246 
L 473.830441 238.058501 
L 474.052539 238.056579 
L 474.274638 236.041552 
L 474.496736 237.711953 
L 474.718835 236.606861 
L 474.940933 237.881364 
L 475.163031 231.396412 
L 475.38513 237.347982 
L 475.607228 237.934722 
L 475.829327 235.651954 
L 476.051425 236.1522 
L 476.273523 239.753517 
L 476.495622 237.382566 
L 476.71772 236.709555 
L 477.161917 238.912877 
L 477.384015 237.390346 
L 477.606114 237.914628 
L 477.828212 235.539816 
L 478.05031 236.63267 
L 478.272409 235.915369 
L 478.494507 237.790548 
L 478.716606 234.750015 
L 478.938704 238.681151 
L 479.160802 236.449577 
L 479.382901 236.052922 
L 479.827098 237.594828 
L 480.049196 233.268739 
L 480.271294 235.174824 
L 480.493393 234.542828 
L 480.715491 237.307721 
L 480.93759 235.917413 
L 481.159688 238.826951 
L 481.603885 229.225291 
L 481.825983 236.677244 
L 482.048082 232.952868 
L 482.27018 242.830942 
L 482.714377 235.629823 
L 482.936475 233.101871 
L 483.158573 243.577663 
L 483.380672 237.927742 
L 483.60277 235.301795 
L 483.824869 238.331212 
L 484.046967 234.255576 
L 484.269065 239.792881 
L 484.713262 243.565658 
L 484.935361 237.12666 
L 485.157459 237.42239 
L 485.379557 239.341873 
L 485.601656 237.667912 
L 485.823754 234.20654 
L 486.045853 239.11388 
L 486.712148 233.469183 
L 486.934246 238.997937 
L 487.156345 247.734337 
L 487.378443 237.064476 
L 487.600541 237.762559 
L 487.82264 239.060772 
L 488.044738 260.317292 
L 488.266836 231.638895 
L 488.488935 240.169634 
L 488.711033 236.894972 
L 488.933132 241.477005 
L 489.15523 236.498653 
L 489.377328 237.17482 
L 489.599427 231.39008 
L 489.821525 238.494278 
L 490.043624 237.401741 
L 490.265722 240.059157 
L 490.48782 234.208962 
L 490.932017 238.136093 
L 491.154116 236.823568 
L 491.376214 238.651554 
L 491.598312 238.243148 
L 491.820411 238.923187 
L 492.042509 235.393438 
L 492.264608 237.233215 
L 492.486706 236.858157 
L 492.708804 235.650388 
L 492.930903 237.407117 
L 493.153001 236.556576 
L 493.3751 237.888413 
L 493.597198 230.325447 
L 493.819296 238.54345 
L 494.041395 235.332688 
L 494.485591 240.862876 
L 494.70769 237.478855 
L 494.929788 236.612525 
L 495.151887 238.773411 
L 495.373985 237.05905 
L 495.596083 238.619894 
L 495.818182 232.18935 
L 496.262379 233.330609 
L 496.484477 238.894413 
L 496.706575 240.009288 
L 497.150772 234.6885 
L 497.372871 236.750489 
L 497.817067 235.682631 
L 498.039166 236.924392 
L 498.261264 237.450113 
L 498.483363 237.094048 
L 498.705461 232.27747 
L 498.927559 240.022711 
L 499.149658 235.588674 
L 499.593854 238.642846 
L 500.038051 237.812641 
L 500.26015 238.178555 
L 500.482248 235.140206 
L 500.704346 237.22957 
L 500.926445 237.810376 
L 501.148543 243.805135 
L 501.370642 238.169708 
L 501.814838 234.683255 
L 502.036937 236.382432 
L 502.259035 239.456847 
L 502.481134 236.022165 
L 502.92533 235.380801 
L 503.147429 237.722294 
L 503.369527 238.354926 
L 503.591626 240.257671 
L 503.813724 235.40321 
L 504.257921 239.178769 
L 504.480019 236.606146 
L 504.702117 238.372421 
L 504.924216 235.493222 
L 505.146314 234.379148 
L 505.368413 237.192802 
L 505.590511 231.412583 
L 505.812609 240.578575 
L 506.034708 232.981221 
L 506.256806 240.135488 
L 506.478905 235.493459 
L 506.923101 238.313323 
L 507.367298 236.526657 
L 507.811495 237.812319 
L 508.033593 236.721526 
L 508.255692 241.791556 
L 508.47779 235.817962 
L 508.921987 238.754345 
L 509.144085 238.585577 
L 509.366184 236.179516 
L 509.588282 237.80939 
L 509.810381 237.68156 
L 510.032479 238.801154 
L 510.254577 236.831806 
L 510.476676 237.503271 
L 510.698774 233.667189 
L 511.142971 239.746266 
L 511.365069 238.208894 
L 511.587168 238.333308 
L 511.809266 239.285353 
L 512.031364 236.762062 
L 512.253463 236.634359 
L 512.475561 237.945872 
L 512.69766 236.093196 
L 512.919758 237.901861 
L 513.141856 238.535458 
L 513.363955 236.401511 
L 513.586053 237.815388 
L 513.808152 233.583336 
L 514.03025 238.099791 
L 514.252348 235.317516 
L 514.474447 238.438063 
L 514.696545 237.987792 
L 514.918644 237.847928 
L 515.140742 236.682679 
L 515.36284 238.12543 
L 515.584939 237.255997 
L 516.029135 238.751153 
L 516.473332 236.672359 
L 516.695431 236.59108 
L 516.917529 238.071954 
L 517.361726 232.660007 
L 517.583824 233.957077 
L 517.805923 236.168667 
L 518.028021 230.532927 
L 518.250119 235.874469 
L 518.472218 234.131276 
L 518.694316 238.771739 
L 518.916415 236.998906 
L 519.138513 232.875885 
L 519.360611 234.381637 
L 519.58271 226.42611 
L 519.804808 241.454688 
L 520.026907 233.090137 
L 520.249005 236.431117 
L 520.471103 234.174386 
L 520.693202 239.263265 
L 520.9153 241.710221 
L 521.137399 233.40887 
L 521.359497 238.219696 
L 521.581595 236.101878 
L 521.803694 241.725317 
L 522.24789 226.960813 
L 522.469989 235.023022 
L 522.692087 238.545939 
L 522.914186 237.304601 
L 523.136284 238.60488 
L 523.358382 239.050571 
L 523.580481 242.197489 
L 523.802579 234.656837 
L 524.024678 245.001606 
L 524.246776 235.56322 
L 524.468874 238.659054 
L 524.690973 232.774918 
L 524.913071 244.122111 
L 525.13517 236.740503 
L 525.357268 238.487844 
L 525.579366 233.750783 
L 525.801465 236.301704 
L 526.023563 229.525093 
L 526.245662 235.570095 
L 526.46776 225.780525 
L 526.689858 247.691998 
L 526.911957 252.507184 
L 527.134055 236.711617 
L 527.356153 252.122271 
L 527.578252 232.402485 
L 528.022449 241.605436 
L 528.244547 233.677026 
L 528.466645 232.710508 
L 528.688744 235.595154 
L 528.910842 233.9601 
L 529.132941 243.420227 
L 529.355039 234.17889 
L 529.577137 240.872574 
L 529.799236 237.154412 
L 530.021334 230.986339 
L 530.243433 238.715659 
L 530.465531 237.097054 
L 530.909728 245.543489 
L 531.131826 236.67059 
L 531.353925 244.059546 
L 531.576023 229.442735 
L 531.798121 236.646148 
L 532.02022 236.646648 
L 532.242318 236.770651 
L 532.464416 238.082173 
L 532.686515 236.033691 
L 533.130712 239.30833 
L 533.35281 239.282686 
L 533.797007 235.815248 
L 534.019105 237.103895 
L 534.241204 241.101803 
L 534.6854 234.834422 
L 535.129597 232.0114 
L 535.351696 236.26629 
L 536.017991 236.219819 
L 536.462188 240.535004 
L 536.684286 236.695607 
L 536.906384 234.828352 
L 537.128483 236.94667 
L 537.350581 240.420119 
L 537.57268 231.029025 
L 537.794778 231.436847 
L 538.016876 238.535779 
L 538.238975 236.677854 
L 538.683171 240.84478 
L 538.90527 234.620017 
L 539.127368 241.681699 
L 539.349467 237.957187 
L 539.571565 238.509102 
L 540.015762 234.714584 
L 540.23786 241.086683 
L 540.682057 233.390753 
L 540.904155 234.116054 
L 541.126254 226.146778 
L 541.348352 242.697016 
L 541.570451 232.474768 
L 541.792549 240.029797 
L 542.236746 233.739997 
L 542.458844 237.966788 
L 542.680943 233.645609 
L 542.903041 241.440431 
L 543.125139 240.917267 
L 543.347238 233.989587 
L 543.569336 231.75955 
L 543.791434 237.667383 
L 544.013533 239.603104 
L 544.235631 226.850813 
L 544.45773 226.399196 
L 544.679828 235.043705 
L 544.901926 223.446397 
L 545.346123 246.637728 
L 545.568222 251.818337 
L 545.79032 237.787069 
L 546.234517 227.013346 
L 546.456615 226.581624 
L 546.678714 245.058456 
L 546.900812 234.364941 
L 547.12291 232.33197 
L 547.345009 250.561372 
L 547.567107 229.867142 
L 548.233402 247.693166 
L 548.455501 232.250137 
L 548.677599 241.252898 
L 548.899698 241.275249 
L 549.121796 231.107565 
L 549.343894 231.571983 
L 549.565993 238.437504 
L 549.788091 236.49656 
L 550.010189 224.43392 
L 550.232288 235.569231 
L 550.454386 234.111161 
L 550.676485 236.179876 
L 550.898583 243.252106 
L 551.120681 245.323277 
L 551.34278 230.478837 
L 551.564878 251.611408 
L 551.786977 229.686458 
L 552.009075 233.317597 
L 552.231173 234.809667 
L 552.453272 224.439389 
L 552.67537 224.176262 
L 552.897469 237.112877 
L 553.119567 231.848588 
L 553.341665 241.257047 
L 553.563764 239.487203 
L 553.785862 225.171523 
L 554.007961 181.6709 
L 554.230059 219.468384 
L 554.452157 220.842233 
L 554.674256 207.711202 
L 554.896354 232.273842 
L 555.118452 237.835207 
L 555.340551 221.644788 
L 555.562649 242.648302 
L 555.784748 285.168378 
L 556.228944 213.204431 
L 556.451043 213.091019 
L 556.673141 250.357152 
L 556.89524 220.306835 
L 557.117338 238.357974 
L 557.339436 229.904308 
L 557.561535 204.129657 
L 557.783633 236.043334 
L 558.005732 309.74812 
L 558.22783 205.537574 
L 558.449928 238.956156 
L 558.672027 192.865813 
L 558.894125 256.065353 
L 559.116224 228.368519 
L 559.338322 266.240047 
L 559.56042 224.964221 
L 559.782519 214.004447 
L 560.226715 254.382727 
L 560.670912 196.878825 
L 560.893011 197.000162 
L 561.115109 255.774694 
L 561.337207 203.055543 
L 561.559306 248.744151 
L 561.781404 255.073428 
L 562.003503 200.697252 
L 562.225601 231.482564 
L 562.447699 244.02459 
L 562.669798 226.451212 
L 562.891896 220.8529 
L 563.113995 245.58676 
L 563.336093 239.928271 
L 563.558191 244.441123 
L 563.78029 237.070242 
L 564.002388 218.728952 
L 564.224487 212.736661 
L 564.668683 248.696064 
L 564.890782 232.967082 
L 565.11288 280.03804 
L 565.334979 296.178441 
L 565.557077 221.785834 
L 565.779175 279.278967 
L 566.001274 245.655369 
L 566.223372 233.557307 
L 566.44547 249.609728 
L 566.667569 196.183756 
L 566.889667 257.425894 
L 567.111766 214.330867 
L 567.333864 246.839611 
L 567.555962 239.821056 
L 567.778061 203.727347 
L 568.000159 218.445574 
L 568.222258 206.471693 
L 568.666454 256.533632 
L 568.888553 229.926117 
L 569.110651 252.430608 
L 569.33275 195.09508 
L 569.554848 256.877221 
L 569.776946 254.863434 
L 569.999045 233.188319 
L 570.221143 232.853196 
L 570.443242 248.685938 
L 570.66534 227.778802 
L 570.887438 238.808541 
L 571.109537 244.198247 
L 571.331635 264.301473 
L 571.553733 240.943089 
L 571.775832 261.070562 
L 572.220029 207.606696 
L 572.442127 233.636888 
L 572.664225 244.398285 
L 572.886324 201.823586 
L 573.108422 230.114742 
L 573.330521 217.359167 
L 573.552619 221.080334 
L 573.774717 191.387187 
L 573.996816 269.272817 
L 574.218914 219.475326 
L 574.441013 233.32845 
L 574.663111 234.513776 
L 574.885209 278.288498 
L 575.107308 204.828722 
L 575.329406 241.992008 
L 575.551505 219.715866 
L 575.995701 242.502143 
L 576.2178 193.083393 
L 576.439898 199.718466 
L 576.661996 214.11813 
L 576.884095 261.606806 
L 577.106193 261.574026 
L 577.328292 267.318395 
L 577.55039 257.106687 
L 577.772488 191.921637 
L 577.994587 227.842129 
L 578.216685 226.665134 
L 578.660882 279.580937 
L 578.88298 208.45253 
L 579.105079 176.830121 
L 579.327177 201.808448 
L 579.549276 214.255823 
L 579.771374 234.512354 
L 579.993472 232.894104 
L 580.215571 189.518205 
L 580.437669 235.714544 
L 580.659768 104.532779 
L 580.881866 286.654082 
L 581.103964 162.756234 
L 581.326063 246.274785 
L 581.548161 239.130863 
L 581.77026 121.486165 
L 581.992358 230.156836 
L 582.214456 230.919126 
L 582.436555 177.389089 
L 582.658653 343.634574 
L 583.10285 136.46945 
L 583.324948 359.747782 
L 583.547047 251.466147 
L 583.769145 322.066945 
L 583.991243 210.328285 
L 584.213342 492.48 
L 584.43544 147.647718 
L 584.657539 335.539602 
L 584.879637 274.852435 
L 585.101735 289.059004 
L 585.323834 89.28 
L 585.545932 219.936527 
L 585.768031 186.914904 
L 585.990129 279.650224 
L 586.212227 325.250006 
L 586.656424 206.688866 
L 586.878523 147.363392 
L 587.100621 260.013684 
L 587.322719 217.281956 
L 587.544818 196.088665 
L 587.766916 283.734148 
L 588.211113 213.978134 
L 588.433211 272.054346 
L 588.65531 257.627185 
L 588.877408 212.226932 
L 589.099506 275.360877 
L 589.321605 270.090273 
L 589.765802 199.721243 
L 589.9879 229.240665 
L 590.209998 217.160179 
L 590.432097 304.912742 
L 590.654195 236.220818 
L 590.876294 276.337462 
L 591.32049 218.597253 
L 591.542589 336.717003 
L 591.764687 241.168796 
L 591.986786 205.580582 
L 592.430982 286.038831 
L 592.875179 195.907252 
L 593.097278 209.470937 
L 593.319376 214.922751 
L 593.541474 205.85993 
L 593.763573 282.07262 
L 593.985671 227.316687 
L 594.207769 216.320068 
L 594.429868 210.90046 
L 594.651966 271.586068 
L 594.874065 202.442798 
L 595.318261 291.558475 
L 595.54036 230.026728 
L 595.762458 247.214119 
L 595.984557 229.584187 
L 596.206655 265.982812 
L 596.428753 264.233236 
L 596.650852 222.375178 
L 596.87295 260.49324 
L 597.317147 232.308147 
L 597.539245 238.332372 
L 597.761344 259.133851 
L 597.983442 245.687507 
L 598.205541 180.98086 
L 598.427639 227.927806 
L 598.649737 209.800777 
L 598.871836 219.546949 
L 599.093934 236.826519 
L 599.538131 219.4014 
L 599.760229 237.92041 
L 599.982328 214.007122 
L 600.204426 213.565122 
L 600.426524 218.213568 
L 600.648623 230.310784 
L 600.870721 224.024718 
L 601.09282 267.33106 
L 601.314918 175.762576 
L 601.537016 208.931035 
L 601.759115 219.777025 
L 601.981213 163.548731 
L 602.203312 277.235549 
L 602.42541 194.66771 
L 602.647508 244.683017 
L 602.869607 231.167488 
L 603.091705 270.945013 
L 603.313804 160.080938 
L 603.535902 253.172918 
L 603.758 224.923685 
L 603.980099 280.145255 
L 604.202197 276.724398 
L 604.646394 192.312772 
L 604.868492 208.508203 
L 605.090591 254.305618 
L 605.534787 216.023821 
L 605.756886 278.14962 
L 605.978984 222.871293 
L 606.201083 271.987836 
L 606.423181 190.186893 
L 606.645279 244.692025 
L 606.867378 242.251613 
L 607.089476 238.153534 
L 607.533673 126.153236 
L 607.755771 249.585854 
L 607.97787 195.915752 
L 608.199968 252.068258 
L 608.422067 219.584945 
L 608.644165 244.014193 
L 608.866263 376.684101 
L 609.088362 217.749624 
L 609.532559 297.300677 
L 609.754657 221.119888 
L 609.976755 198.625658 
L 610.198854 271.99698 
L 610.420952 197.57105 
L 610.64305 185.793244 
L 611.087247 285.350027 
L 611.309346 228.136547 
L 611.531444 265.879221 
L 611.753542 340.195159 
L 611.975641 291.399448 
L 612.197739 150.471341 
L 612.641936 299.525643 
L 613.086133 199.501395 
L 613.308231 272.968959 
L 613.53033 272.612704 
L 614.196625 152.57961 
L 614.418723 214.071803 
L 614.86292 248.041022 
L 615.085018 199.021534 
L 615.529215 235.367907 
L 615.751313 244.142201 
L 615.973412 234.107131 
L 616.19551 278.999348 
L 616.417609 204.272565 
L 616.639707 252.0667 
L 616.861805 205.901787 
L 617.083904 187.541127 
L 617.528101 246.371841 
L 617.750199 232.785264 
L 617.972297 264.706831 
L 618.416494 160.207455 
L 618.638593 265.629301 
L 618.860691 260.76656 
L 619.082789 181.529702 
L 619.304888 260.661038 
L 619.526986 201.367261 
L 619.971183 293.142319 
L 620.193281 138.369046 
L 620.637478 262.141256 
L 621.081675 227.283974 
L 621.303773 165.247984 
L 621.525872 231.21158 
L 621.74797 256.80746 
L 621.970068 251.59517 
L 622.636364 181.07287 
L 622.636364 181.07287 
" style="fill:none;stroke:#e24a33;stroke-linecap:square;stroke-width:1.5;"/>
   </g>
   <g id="line2d_28">
    <path clip-path="url(#p24bc209865)" d="M 122.026588 237.78978 
L 244.6249 237.737518 
L 245.513294 237.561151 
L 245.735392 237.402255 
L 245.957491 237.423607 
L 246.179589 237.694672 
L 246.623786 237.702175 
L 247.290081 237.756891 
L 247.51218 237.617625 
L 249.511065 237.782887 
L 249.955262 237.843235 
L 252.176246 237.717292 
L 254.841427 237.731627 
L 255.285623 237.449389 
L 255.507722 237.498385 
L 255.72982 237.396058 
L 256.396115 237.608333 
L 256.618214 237.3824 
L 258.172902 237.807953 
L 259.505493 237.727089 
L 259.727591 237.636122 
L 259.94969 237.105407 
L 260.171788 237.138492 
L 260.393886 236.698922 
L 260.615985 236.532841 
L 261.060181 236.792568 
L 261.504378 237.793031 
L 261.726477 238.005812 
L 261.948575 237.883294 
L 262.170673 237.437692 
L 262.392772 236.731882 
L 262.61487 236.806631 
L 263.059067 237.338354 
L 263.281165 237.488018 
L 263.503264 237.268366 
L 263.725362 237.272471 
L 263.947461 237.103587 
L 264.391657 237.386999 
L 264.613756 237.179029 
L 264.835854 236.339977 
L 265.057953 236.4964 
L 265.280051 235.880602 
L 265.502149 236.401692 
L 265.724248 237.349367 
L 265.946346 237.65435 
L 266.168445 237.748389 
L 266.390543 237.672081 
L 267.501035 238.131928 
L 267.723133 237.983068 
L 268.389428 238.06682 
L 268.611527 238.187845 
L 268.833625 237.82337 
L 270.388314 238.239271 
L 270.610412 238.214053 
L 271.054609 238.378513 
L 273.053495 238.654308 
L 273.275593 237.928856 
L 273.497691 238.236469 
L 273.71979 237.867483 
L 273.941888 237.951928 
L 274.163987 237.780705 
L 274.608183 237.93346 
L 274.830282 238.25176 
L 275.496577 238.357027 
L 275.718675 238.12212 
L 275.940774 238.097044 
L 276.162872 237.943549 
L 276.384971 237.511539 
L 277.051266 237.589615 
L 277.273364 237.073501 
L 277.717561 237.014717 
L 277.939659 236.666752 
L 278.383856 237.145289 
L 278.605954 237.153714 
L 278.828053 237.290675 
L 279.050151 237.637763 
L 279.494348 237.929886 
L 279.938545 237.754727 
L 280.382742 237.744357 
L 280.60484 237.654727 
L 280.826938 237.327452 
L 281.271135 237.416183 
L 282.159529 237.208242 
L 282.381627 237.288735 
L 282.603726 237.019896 
L 282.825824 236.98292 
L 283.270021 237.164729 
L 283.492119 237.86491 
L 284.158414 238.594962 
L 284.602611 238.090836 
L 285.268906 238.20024 
L 285.713103 238.058089 
L 286.1573 238.106835 
L 286.379398 238.639416 
L 286.823595 238.491391 
L 287.045693 237.868926 
L 287.48989 237.783482 
L 287.711989 238.201161 
L 287.934087 238.260335 
L 288.156185 237.906738 
L 288.378284 237.893587 
L 288.600382 237.702205 
L 288.82248 237.796726 
L 289.044579 237.481547 
L 289.488776 237.86623 
L 289.932972 237.748244 
L 290.599268 237.890739 
L 290.821366 237.826717 
L 291.265563 237.505933 
L 291.487661 237.546378 
L 291.70976 237.751756 
L 292.153956 237.755783 
L 292.376055 237.729217 
L 292.598153 237.179646 
L 292.820252 237.116881 
L 293.264448 237.479285 
L 293.708645 238.005284 
L 294.152842 238.109028 
L 295.041235 237.920727 
L 295.707531 237.763005 
L 295.929629 237.767227 
L 296.373826 237.606104 
L 296.595924 237.653572 
L 297.040121 238.017555 
L 297.262219 237.81076 
L 298.150613 237.889742 
L 298.59481 237.446998 
L 298.816908 237.782526 
L 299.039007 237.679862 
L 299.261105 237.805321 
L 299.483203 237.708545 
L 299.705302 237.349219 
L 300.371597 237.614984 
L 301.037892 237.190542 
L 301.25999 237.387203 
L 301.482089 237.182832 
L 301.704187 236.749464 
L 301.926286 235.77498 
L 302.370482 236.684873 
L 302.592581 236.906813 
L 302.814679 237.3006 
L 303.036778 238.03873 
L 303.258876 238.129043 
L 303.480974 237.865682 
L 304.369368 237.615939 
L 304.591466 237.983684 
L 304.813565 238.06642 
L 305.257762 237.368524 
L 305.47986 237.708307 
L 305.701958 236.813977 
L 305.924057 234.635137 
L 306.146155 234.485285 
L 306.590352 236.683224 
L 306.81245 236.98657 
L 307.034549 236.9411 
L 307.256647 236.095206 
L 307.478745 236.19073 
L 307.700844 236.78358 
L 307.922942 237.023774 
L 308.145041 237.491337 
L 308.589237 239.231396 
L 309.033434 238.017253 
L 309.255533 237.934666 
L 309.477631 238.202975 
L 309.699729 237.94443 
L 309.921828 238.325265 
L 310.366025 237.388991 
L 310.588123 235.2559 
L 310.810221 234.339516 
L 311.254418 235.696044 
L 311.476516 235.768341 
L 311.698615 235.066277 
L 311.920713 235.926565 
L 312.142812 234.974975 
L 312.587008 237.140307 
L 313.031205 235.637083 
L 313.475402 239.010912 
L 313.6975 238.277384 
L 314.141697 239.104696 
L 314.363796 238.386814 
L 314.585894 239.39556 
L 314.807992 238.564868 
L 315.030091 238.680904 
L 315.252189 238.614473 
L 315.474288 239.479068 
L 315.696386 239.025838 
L 315.918484 238.864295 
L 316.140583 238.138723 
L 316.362681 235.897248 
L 316.806878 239.27889 
L 317.028976 240.229141 
L 317.251075 240.23483 
L 317.473173 238.805208 
L 317.695271 240.680514 
L 317.91737 237.674031 
L 318.139468 236.431856 
L 318.361567 241.129922 
L 318.583665 238.467232 
L 318.805763 239.589416 
L 319.027862 239.477704 
L 319.24996 238.964184 
L 319.472059 238.984642 
L 319.694157 239.441427 
L 319.916255 239.369834 
L 320.360452 237.664539 
L 320.582551 237.434248 
L 320.804649 236.794719 
L 321.026747 238.394804 
L 321.248846 238.237909 
L 321.470944 239.27298 
L 321.693043 239.674286 
L 322.137239 239.483724 
L 322.581436 238.91643 
L 323.025633 237.91664 
L 323.247731 238.091519 
L 323.46983 237.8269 
L 323.691928 238.035844 
L 323.914026 238.043379 
L 324.136125 237.859093 
L 324.358223 238.032105 
L 324.580322 238.378986 
L 325.024518 238.082593 
L 325.246617 238.841029 
L 325.468715 238.490466 
L 325.690814 239.154431 
L 325.912912 238.932082 
L 326.13501 238.880209 
L 326.357109 238.316629 
L 326.579207 238.843272 
L 326.801306 238.927707 
L 327.023404 238.56791 
L 327.245502 238.838399 
L 327.467601 239.290286 
L 328.578093 239.056774 
L 329.022289 239.06505 
L 329.244388 238.955749 
L 329.466486 239.179332 
L 329.688585 238.684104 
L 329.910683 239.276767 
L 330.132781 239.366979 
L 330.35488 239.258807 
L 330.576978 239.325804 
L 331.021175 239.132178 
L 331.465372 239.057904 
L 331.68747 238.902985 
L 332.575864 237.459813 
L 332.797962 235.988144 
L 333.242159 236.422709 
L 333.464257 236.208642 
L 333.908454 237.563225 
L 334.130552 237.401177 
L 334.574749 236.045695 
L 334.796848 236.605506 
L 335.241044 236.693112 
L 335.463143 236.042992 
L 335.685241 237.593361 
L 335.90734 237.502882 
L 336.129438 238.144866 
L 336.351536 237.651961 
L 336.573635 237.561646 
L 336.795733 237.876873 
L 337.017832 237.851712 
L 337.23993 237.608597 
L 337.462028 236.031229 
L 337.684127 236.263771 
L 337.906225 236.173882 
L 338.350422 237.828742 
L 338.794619 238.224845 
L 339.238815 238.587281 
L 339.460914 238.697463 
L 339.905111 237.858646 
L 341.015603 238.029176 
L 341.237701 237.697659 
L 341.459799 237.82767 
L 341.681898 238.244012 
L 341.903996 238.096573 
L 342.126095 238.763763 
L 342.348193 238.676608 
L 342.570291 238.766846 
L 342.79239 238.69978 
L 343.014488 238.379286 
L 343.236587 239.194442 
L 343.680783 238.840969 
L 344.12498 238.262881 
L 344.347078 237.55709 
L 344.569177 237.99355 
L 344.791275 237.80793 
L 345.679669 238.174681 
L 346.123866 238.899516 
L 346.568062 238.717725 
L 346.790161 238.852275 
L 347.456456 238.506779 
L 348.122751 237.597921 
L 348.34485 237.761045 
L 348.789046 238.750656 
L 349.233243 238.76817 
L 350.121637 238.59359 
L 350.787932 237.655453 
L 351.01003 237.783297 
L 351.676325 237.748923 
L 351.898424 237.463895 
L 352.120522 237.548851 
L 352.342621 237.859313 
L 352.564719 238.378304 
L 353.008916 238.498288 
L 353.453113 238.237326 
L 353.675211 237.920535 
L 354.119408 236.763568 
L 354.785703 238.065314 
L 355.451998 238.104801 
L 355.674096 237.677389 
L 355.896195 237.677122 
L 356.118293 237.792563 
L 356.56249 237.779183 
L 356.784588 237.794839 
L 357.672982 238.336377 
L 358.561376 238.114802 
L 359.449769 238.399813 
L 359.893966 238.549265 
L 360.116064 238.471913 
L 360.560261 238.744712 
L 360.782359 238.753992 
L 361.004458 238.482728 
L 361.448655 238.374227 
L 361.670753 238.572106 
L 362.337048 238.549858 
L 362.781245 238.29547 
L 363.003343 238.289966 
L 363.44754 237.830819 
L 364.113835 238.034612 
L 364.335934 237.838434 
L 364.780131 237.889391 
L 365.002229 237.958152 
L 365.224327 238.364719 
L 365.446426 238.538802 
L 366.334819 238.427361 
L 366.779016 238.347988 
L 367.445311 237.702814 
L 367.66741 237.696074 
L 367.889508 238.061321 
L 368.333705 238.035469 
L 368.555803 237.783114 
L 368.777902 237.302284 
L 369.222098 237.469503 
L 369.666295 238.10664 
L 369.888394 238.191378 
L 370.110492 237.992823 
L 370.33259 237.973086 
L 370.776787 237.697072 
L 371.220984 237.763187 
L 371.665181 237.866017 
L 372.109377 237.768455 
L 372.997771 237.752429 
L 373.219869 238.110393 
L 373.441968 238.210821 
L 373.886165 238.108804 
L 374.330361 237.768299 
L 375.218755 237.836696 
L 376.773444 237.838695 
L 376.995542 237.808165 
L 377.439739 237.925168 
L 378.328132 237.798404 
L 378.994428 237.513774 
L 379.438624 237.685391 
L 379.882821 237.785489 
L 380.549116 237.871285 
L 380.771215 238.1287 
L 381.215412 238.201191 
L 381.881707 238.154944 
L 382.325904 238.298952 
L 383.658494 238.253716 
L 383.880592 238.082376 
L 384.768986 238.019072 
L 385.657379 238.297281 
L 386.767871 238.058104 
L 387.212068 238.012972 
L 387.878363 237.951761 
L 388.32256 237.646827 
L 388.544658 237.624351 
L 388.766757 237.403459 
L 388.988855 237.554194 
L 389.210954 237.530218 
L 389.65515 237.232588 
L 390.321446 237.928752 
L 390.543544 237.724322 
L 390.987741 237.643738 
L 391.209839 237.747575 
L 391.431938 237.672837 
L 391.654036 237.443031 
L 392.098233 237.503665 
L 392.764528 237.682658 
L 394.097118 238.076167 
L 394.541315 237.890499 
L 395.429709 237.782188 
L 396.318102 237.891576 
L 397.206496 237.910972 
L 397.650693 238.009101 
L 398.539086 237.832745 
L 399.649578 237.88446 
L 399.871676 237.669031 
L 400.315873 237.548316 
L 401.204267 237.775828 
L 401.648464 237.781386 
L 402.314759 237.418602 
L 402.536857 237.421909 
L 402.981054 237.599764 
L 403.203152 237.505112 
L 403.425251 237.865191 
L 404.091546 237.934707 
L 404.97994 237.821971 
L 405.202038 237.858676 
L 405.646235 237.674228 
L 406.534628 237.75528 
L 407.200923 237.837531 
L 407.64512 237.766325 
L 408.089317 237.704683 
L 409.644006 237.825737 
L 410.088203 237.829633 
L 410.532399 237.74126 
L 411.198694 237.734318 
L 411.420793 237.748864 
L 411.642891 237.426235 
L 413.419678 237.627423 
L 413.863875 237.919466 
L 414.53017 237.872199 
L 415.418564 237.606471 
L 416.306957 237.741697 
L 416.973253 237.988744 
L 418.527941 237.653662 
L 418.972138 237.760114 
L 419.194237 237.654958 
L 420.08263 237.733534 
L 420.304729 237.402953 
L 420.526827 237.509238 
L 420.748925 237.434802 
L 420.971024 237.138746 
L 421.193122 236.641113 
L 421.415221 236.473309 
L 421.859417 237.569532 
L 422.081516 237.36784 
L 422.303614 237.613689 
L 422.525712 237.661901 
L 422.747811 237.858865 
L 423.192008 237.810029 
L 423.414106 237.72377 
L 423.858303 237.313637 
L 424.3025 237.455745 
L 424.524598 237.720507 
L 425.190893 237.635662 
L 425.63509 238.009582 
L 426.079287 237.894455 
L 426.523484 237.807923 
L 426.745582 237.926902 
L 427.633975 237.589929 
L 428.078172 237.480227 
L 428.522369 237.513168 
L 428.744467 237.734981 
L 429.188664 237.747704 
L 429.632861 237.095683 
L 430.299156 237.308269 
L 430.521255 237.102183 
L 430.743353 237.860742 
L 430.965451 237.903191 
L 431.18755 237.793666 
L 431.409648 238.131206 
L 431.853845 238.109343 
L 432.075943 237.875131 
L 432.298042 237.961804 
L 432.742238 237.871743 
L 433.186435 237.387006 
L 433.408534 237.445535 
L 433.85273 238.103856 
L 435.185321 238.496517 
L 436.073714 238.035638 
L 436.74001 238.141144 
L 437.184206 238.04075 
L 437.406305 238.156427 
L 438.0726 238.054491 
L 438.516797 237.859064 
L 439.183092 237.76392 
L 439.40519 237.589622 
L 440.293584 238.046849 
L 440.515682 238.097704 
L 440.959879 237.939147 
L 441.181977 237.915991 
L 441.404076 238.09912 
L 442.070371 238.062335 
L 442.514568 237.703257 
L 442.736666 237.734957 
L 442.958765 237.879393 
L 444.291355 237.919799 
L 444.735552 238.131009 
L 445.179748 238.033378 
L 446.068142 237.803182 
L 446.734437 237.819496 
L 447.178634 237.734983 
L 448.067028 237.786016 
L 449.399618 237.277973 
L 450.288011 237.937517 
L 450.51011 238.258551 
L 450.732208 238.347771 
L 450.954307 238.306633 
L 451.8427 237.751401 
L 452.508995 237.753851 
L 453.619487 237.741816 
L 453.841586 237.566813 
L 454.063684 237.589676 
L 454.507881 237.87356 
L 456.06257 237.927733 
L 456.728865 237.839907 
L 457.173062 237.958743 
L 457.39516 237.700673 
L 458.283554 237.555007 
L 458.72775 237.755511 
L 459.394046 237.84166 
L 460.282439 237.731929 
L 460.726636 237.821628 
L 461.170833 237.789848 
L 462.503423 237.791269 
L 463.391817 238.032689 
L 463.836013 238.126297 
L 464.28021 238.098131 
L 465.168604 237.779075 
L 466.723292 237.885237 
L 468.722178 237.87159 
L 469.166375 238.093962 
L 469.610572 237.970638 
L 470.721064 237.83273 
L 471.387359 237.862656 
L 472.497851 237.814211 
L 472.719949 237.86726 
L 473.608343 237.614129 
L 474.052539 237.695495 
L 474.496736 237.734466 
L 475.163031 237.744183 
L 475.38513 237.42726 
L 475.607228 237.397943 
L 476.051425 237.474271 
L 476.273523 237.464191 
L 476.71772 237.744733 
L 478.05031 237.741356 
L 478.938704 237.465733 
L 479.382901 237.575239 
L 479.827098 237.56688 
L 480.049196 237.62231 
L 480.715491 237.193733 
L 481.603885 237.439347 
L 481.825983 236.997913 
L 482.048082 237.024012 
L 482.27018 236.90691 
L 482.714377 237.69689 
L 482.936475 237.738769 
L 483.158573 237.53285 
L 483.380672 237.837053 
L 483.60277 237.935214 
L 484.269065 237.613184 
L 484.491164 237.666289 
L 485.157459 238.15175 
L 485.823754 238.018695 
L 486.045853 237.850562 
L 486.712148 237.750224 
L 486.934246 237.534538 
L 487.156345 237.607082 
L 487.378443 238.097771 
L 487.600541 238.274152 
L 488.044738 238.292763 
L 488.266836 238.142801 
L 488.488935 238.75183 
L 489.599427 238.534204 
L 490.043624 238.151161 
L 490.265722 238.077631 
L 490.48782 238.192313 
L 490.932017 237.950863 
L 492.264608 238.007256 
L 493.3751 237.656862 
L 493.597198 237.705043 
L 493.819296 237.311859 
L 494.485591 237.473007 
L 494.70769 237.766575 
L 495.151887 237.858655 
L 495.818182 237.878434 
L 496.262379 237.603814 
L 496.484477 237.293147 
L 496.706575 237.371188 
L 497.150772 237.702611 
L 498.039166 237.468399 
L 498.705461 237.58168 
L 498.927559 237.340838 
L 499.149658 237.519703 
L 499.593854 237.554694 
L 500.26015 237.815733 
L 500.482248 237.85153 
L 500.926445 237.681035 
L 501.148543 237.682666 
L 501.59274 238.045803 
L 501.814838 238.010026 
L 502.259035 237.687659 
L 502.703232 237.68737 
L 503.369527 237.526657 
L 504.035822 237.833228 
L 504.702117 237.849547 
L 504.924216 237.872911 
L 505.590511 237.534016 
L 505.812609 237.196327 
L 506.034708 237.430458 
L 506.256806 237.300988 
L 506.478905 237.550936 
L 506.923101 237.627869 
L 507.367298 237.764539 
L 508.255692 237.687524 
L 508.47779 237.884431 
L 510.920872 237.612765 
L 511.142971 237.548756 
L 511.809266 237.887285 
L 512.031364 237.990668 
L 512.69766 237.877042 
L 513.141856 237.779841 
L 513.586053 237.798047 
L 513.808152 237.806736 
L 514.03025 237.609175 
L 514.918644 237.717706 
L 515.584939 237.82156 
L 517.139627 237.767349 
L 517.361726 237.643063 
L 517.805923 237.124063 
L 518.028021 237.103569 
L 518.250119 236.783939 
L 518.694316 236.848437 
L 519.138513 237.376162 
L 519.58271 237.199361 
L 519.804808 236.643342 
L 520.026907 237.066667 
L 520.249005 237.066572 
L 520.471103 237.201709 
L 520.471103 237.201709 
" style="fill:none;stroke:#348abd;stroke-linecap:square;stroke-width:1.5;"/>
   </g>
   <g id="line2d_29">
    <path clip-path="url(#p24bc209865)" d="M 520.693202 237.186918 
L 521.137399 237.777953 
L 521.803694 237.682065 
L 522.025792 237.847605 
L 522.24789 237.746364 
L 522.469989 237.139253 
L 522.692087 236.921524 
L 523.358382 237.445767 
L 523.802579 237.952626 
L 524.024678 237.924275 
L 524.246776 238.14022 
L 524.690973 238.070449 
L 524.913071 237.806002 
L 525.357268 237.942529 
L 525.579366 237.94407 
L 526.023563 237.643682 
L 526.245662 237.152515 
L 526.46776 237.002382 
L 526.689858 236.278119 
L 527.134055 238.151043 
L 527.356153 238.531211 
L 527.578252 238.56921 
L 527.80035 238.814764 
L 528.466645 238.384035 
L 529.132941 237.469312 
L 529.355039 237.798548 
L 529.577137 237.751443 
L 529.799236 237.984633 
L 530.021334 238.036534 
L 530.243433 237.65609 
L 530.687629 237.690424 
L 531.353925 238.378977 
L 531.576023 238.469573 
L 532.464416 237.739867 
L 533.35281 237.848357 
L 533.797007 237.980423 
L 534.241204 237.812937 
L 534.463302 237.969575 
L 534.6854 237.982117 
L 535.129597 237.833923 
L 535.351696 237.475735 
L 536.240089 237.315424 
L 536.462188 237.444126 
L 536.684286 237.727516 
L 536.906384 237.81178 
L 537.350581 237.667259 
L 537.57268 237.8381 
L 538.016876 237.128116 
L 538.461073 237.297929 
L 538.90527 237.823917 
L 539.127368 237.799161 
L 539.349467 237.990954 
L 539.793663 238.036922 
L 540.459959 237.808373 
L 540.682057 237.766998 
L 541.126254 237.309662 
L 541.348352 236.583142 
L 541.570451 237.029704 
L 541.792549 236.976718 
L 542.014647 237.347427 
L 542.236746 237.463783 
L 542.458844 237.366296 
L 542.680943 237.481126 
L 542.903041 237.34619 
L 543.347238 237.925224 
L 543.569336 237.836298 
L 543.791434 237.4807 
L 544.013533 237.430726 
L 544.235631 237.573024 
L 544.679828 236.359547 
L 544.901926 236.384043 
L 545.124025 235.859004 
L 545.346123 236.375623 
L 545.79032 238.091862 
L 546.012418 238.518027 
L 546.234517 238.426309 
L 546.678714 236.751829 
L 546.900812 237.194167 
L 547.12291 237.192554 
L 547.345009 236.995773 
L 547.567107 237.827934 
L 548.011304 237.680711 
L 548.233402 237.812951 
L 548.455501 238.224853 
L 548.899698 238.197492 
L 549.121796 238.231308 
L 549.343894 237.963441 
L 549.565993 237.485728 
L 550.010189 237.356505 
L 550.232288 236.563606 
L 550.676485 236.521774 
L 550.898583 236.733966 
L 551.34278 238.085077 
L 551.564878 237.980307 
L 551.786977 238.501331 
L 552.009075 238.42172 
L 552.453272 237.668583 
L 552.897469 235.781905 
L 553.119567 236.064846 
L 553.341665 236.153666 
L 553.785862 237.30538 
L 554.007961 236.833217 
L 554.230059 234.448141 
L 554.674256 235.039254 
L 554.896354 234.886603 
L 555.340551 236.153808 
L 555.562649 236.125878 
L 555.784748 236.906395 
L 556.006846 236.149725 
L 556.228944 236.930194 
L 556.451043 238.902339 
L 556.673141 237.887789 
L 556.89524 238.757303 
L 557.117338 237.588436 
L 557.339436 237.643232 
L 557.561535 237.033367 
L 557.783633 235.019214 
L 558.005732 235.930799 
L 558.22783 237.405953 
L 558.449928 239.641963 
L 558.672027 240.041228 
L 558.894125 237.317162 
L 559.116224 239.256394 
L 559.338322 238.583088 
L 559.56042 240.01998 
L 559.782519 240.003633 
L 560.004617 237.745389 
L 560.226715 237.751505 
L 560.448814 239.162549 
L 560.670912 238.233101 
L 560.893011 235.366107 
L 561.115109 233.981799 
L 561.337207 236.878739 
L 561.559306 235.279904 
L 562.003503 238.938191 
L 562.225601 236.616173 
L 562.447699 237.224869 
L 562.669798 238.318975 
L 563.113995 236.464862 
L 563.336093 237.644144 
L 563.558191 237.898296 
L 563.78029 238.431683 
L 564.002388 238.405964 
L 564.446585 235.429234 
L 564.668683 235.738474 
L 564.890782 237.095022 
L 565.11288 237.094388 
L 565.334979 238.142436 
L 565.557077 236.704469 
L 565.779175 239.449586 
L 566.001274 235.446844 
L 566.223372 236.647102 
L 566.44547 237.075222 
L 566.667569 236.142118 
L 566.889667 239.886642 
L 567.111766 238.192763 
L 567.333864 239.99128 
L 567.555962 239.370077 
L 567.778061 239.497216 
L 568.000159 239.277465 
L 568.444356 235.848955 
L 568.666454 235.969273 
L 568.888553 238.062982 
L 569.110651 237.795204 
L 569.33275 239.006292 
L 569.554848 236.352656 
L 569.776946 239.134999 
L 569.999045 240.399505 
L 570.221143 240.33654 
L 570.443242 239.568954 
L 570.66534 239.764721 
L 570.887438 238.920532 
L 571.109537 238.550528 
L 571.553733 238.771736 
L 571.775832 239.07679 
L 571.99793 237.881587 
L 572.220029 238.67574 
L 572.442127 240.130742 
L 572.664225 239.486553 
L 572.886324 239.247644 
L 573.330521 237.267375 
L 573.552619 235.883303 
L 573.774717 235.294178 
L 573.996816 233.861042 
L 574.218914 236.600286 
L 574.441013 236.187899 
L 574.663111 236.842608 
L 574.885209 237.109037 
L 575.107308 238.225244 
L 575.329406 238.156194 
L 575.551505 239.247883 
L 575.773603 237.665584 
L 575.995701 237.21404 
L 576.2178 237.824495 
L 576.439898 235.033232 
L 576.661996 234.313845 
L 576.884095 234.639674 
L 577.328292 238.160177 
L 577.772488 238.574394 
L 577.994587 241.770206 
L 578.438784 239.459878 
L 578.660882 239.819882 
L 578.88298 239.732116 
L 579.105079 241.953697 
L 579.549276 237.425285 
L 579.771374 236.879948 
L 579.993472 237.712717 
L 580.215571 237.993802 
L 580.437669 235.790868 
L 580.659768 236.7315 
L 580.881866 234.365063 
L 581.103964 236.917694 
L 581.326063 235.775986 
L 581.548161 239.532683 
L 581.77026 240.530857 
L 581.992358 237.016254 
L 582.214456 238.850616 
L 582.436555 239.218485 
L 582.658653 235.962698 
L 583.10285 241.408633 
L 583.324948 246.543876 
L 583.547047 241.247688 
L 583.769145 244.385634 
L 583.991243 235.846064 
L 584.213342 244.645526 
L 584.43544 229.733432 
L 584.657539 251.852437 
L 584.879637 234.884333 
L 585.101735 238.193623 
L 585.323834 235.316449 
L 585.545932 252.811822 
L 585.768031 248.169125 
L 585.990129 250.232237 
L 586.212227 246.152138 
L 586.434326 238.414693 
L 586.656424 239.311911 
L 587.100621 249.338689 
L 587.322719 244.617078 
L 587.544818 245.992495 
L 587.989014 242.233798 
L 588.433211 243.916881 
L 588.65531 241.364475 
L 588.877408 240.919351 
L 589.099506 242.88951 
L 589.321605 239.703547 
L 589.543703 238.650225 
L 589.9879 242.037085 
L 590.209998 240.323093 
L 590.654195 238.931803 
L 590.876294 242.191938 
L 591.098392 238.798153 
L 591.32049 238.922814 
L 591.542589 240.314172 
L 591.764687 234.860869 
L 591.986786 239.94146 
L 592.208884 241.083913 
L 592.653081 235.75012 
L 593.097278 240.914793 
L 593.319376 240.615719 
L 593.541474 240.064438 
L 593.763573 239.204679 
L 594.207769 241.065438 
L 594.651966 236.965662 
L 594.874065 239.638454 
L 595.096163 237.808963 
L 595.318261 238.663492 
L 595.762458 241.818631 
L 596.650852 237.999375 
L 596.87295 239.874156 
L 597.095049 237.869888 
L 597.317147 238.116758 
L 597.539245 238.590213 
L 597.761344 238.388826 
L 597.983442 237.796189 
L 598.205541 238.202698 
L 598.427639 242.544051 
L 599.093934 238.40693 
L 599.316032 238.352437 
L 599.760229 236.700891 
L 599.982328 237.347089 
L 600.204426 236.218932 
L 600.426524 235.673441 
L 600.648623 235.595368 
L 600.870721 235.98129 
L 601.09282 236.03362 
L 601.314918 236.920742 
L 601.537016 234.75755 
L 601.981213 236.125484 
L 602.203312 234.97362 
L 602.42541 236.531039 
L 602.647508 235.018957 
L 602.869607 237.579408 
L 603.091705 237.772183 
L 603.313804 239.665186 
L 603.535902 237.161824 
L 603.758 241.53248 
L 603.980099 240.523256 
L 604.202197 243.082279 
L 604.424295 242.100707 
L 604.646394 242.549562 
L 604.868492 243.984635 
L 605.090591 241.263436 
L 605.312689 241.258021 
L 605.534787 240.724282 
L 605.756886 238.769778 
L 605.978984 240.654205 
L 606.201083 241.370555 
L 606.423181 241.138461 
L 606.645279 243.145567 
L 606.867378 242.212653 
L 607.089476 241.904896 
L 607.311575 241.306896 
L 607.755771 237.597346 
L 607.97787 240.011511 
L 608.199968 237.588047 
L 608.422067 240.077014 
L 608.644165 238.473859 
L 608.866263 239.63973 
L 609.088362 239.969729 
L 609.31046 243.912753 
L 609.754657 235.50402 
L 609.976755 239.46115 
L 610.198854 240.970546 
L 610.420952 237.579386 
L 610.64305 242.188144 
L 610.865149 240.968241 
L 611.087247 240.77909 
L 611.309346 240.005695 
L 611.531444 242.767605 
L 611.753542 240.249462 
L 611.975641 236.087477 
L 612.197739 236.857992 
L 612.419838 250.546476 
L 612.864034 237.898467 
L 613.308231 243.849244 
L 613.53033 239.477978 
L 613.752428 238.222001 
L 614.196625 242.419238 
L 614.418723 243.214606 
L 614.640822 242.031437 
L 615.085018 242.804149 
L 615.307117 240.100472 
L 615.529215 239.040819 
L 615.751313 239.189793 
L 615.973412 239.756586 
L 616.19551 239.113052 
L 616.417609 239.909794 
L 616.639707 239.38646 
L 616.861805 241.099474 
L 617.306002 235.420616 
L 617.528101 235.472637 
L 617.750199 237.507094 
L 617.972297 237.615226 
L 618.194396 239.39376 
L 618.638593 234.6963 
L 619.082789 241.109945 
L 619.304888 238.643134 
L 619.526986 242.100818 
L 619.749085 239.196949 
L 619.971183 242.007758 
L 620.193281 241.824512 
L 620.41538 249.308072 
L 620.637478 244.668374 
L 620.859577 246.007063 
L 621.081675 245.734402 
L 621.303773 244.018246 
L 621.525872 240.719832 
L 621.74797 240.524967 
L 621.970068 242.475613 
L 622.192167 243.032845 
L 622.636364 241.741553 
L 622.636364 241.741553 
" style="fill:none;stroke:#988ed5;stroke-linecap:square;stroke-width:1.5;"/>
   </g>
   <g id="patch_3">
    <path d="M 90 512.64 
L 90 69.12 
" style="fill:none;stroke:#ffffff;stroke-linecap:square;stroke-linejoin:miter;"/>
   </g>
   <g id="patch_4">
    <path d="M 648 512.64 
L 648 69.12 
" style="fill:none;stroke:#ffffff;stroke-linecap:square;stroke-linejoin:miter;"/>
   </g>
   <g id="patch_5">
    <path d="M 90 512.64 
L 648 512.64 
" style="fill:none;stroke:#ffffff;stroke-linecap:square;stroke-linejoin:miter;"/>
   </g>
   <g id="patch_6">
    <path d="M 90 69.12 
L 648 69.12 
" style="fill:none;stroke:#ffffff;stroke-linecap:square;stroke-linejoin:miter;"/>
   </g>
   <g id="text_14">
    <!-- ETH-USD -->
    <g transform="translate(336.65625 63.12)scale(0.144 -0.144)">
     <defs>
      <path d="M 628 4666 
L 3578 4666 
L 3578 4134 
L 1259 4134 
L 1259 2753 
L 3481 2753 
L 3481 2222 
L 1259 2222 
L 1259 531 
L 3634 531 
L 3634 0 
L 628 0 
L 628 4666 
z
" id="DejaVuSans-45" transform="scale(0.015625)"/>
      <path d="M -19 4666 
L 3928 4666 
L 3928 4134 
L 2272 4134 
L 2272 0 
L 1638 0 
L 1638 4134 
L -19 4134 
L -19 4666 
z
" id="DejaVuSans-54" transform="scale(0.015625)"/>
      <path d="M 628 4666 
L 1259 4666 
L 1259 2753 
L 3553 2753 
L 3553 4666 
L 4184 4666 
L 4184 0 
L 3553 0 
L 3553 2222 
L 1259 2222 
L 1259 0 
L 628 0 
L 628 4666 
z
" id="DejaVuSans-48" transform="scale(0.015625)"/>
      <path d="M 313 2009 
L 1997 2009 
L 1997 1497 
L 313 1497 
L 313 2009 
z
" id="DejaVuSans-2d" transform="scale(0.015625)"/>
      <path d="M 556 4666 
L 1191 4666 
L 1191 1831 
Q 1191 1081 1462 751 
Q 1734 422 2344 422 
Q 2950 422 3222 751 
Q 3494 1081 3494 1831 
L 3494 4666 
L 4128 4666 
L 4128 1753 
Q 4128 841 3676 375 
Q 3225 -91 2344 -91 
Q 1459 -91 1007 375 
Q 556 841 556 1753 
L 556 4666 
z
" id="DejaVuSans-55" transform="scale(0.015625)"/>
      <path d="M 3425 4513 
L 3425 3897 
Q 3066 4069 2747 4153 
Q 2428 4238 2131 4238 
Q 1616 4238 1336 4038 
Q 1056 3838 1056 3469 
Q 1056 3159 1242 3001 
Q 1428 2844 1947 2747 
L 2328 2669 
Q 3034 2534 3370 2195 
Q 3706 1856 3706 1288 
Q 3706 609 3251 259 
Q 2797 -91 1919 -91 
Q 1588 -91 1214 -16 
Q 841 59 441 206 
L 441 856 
Q 825 641 1194 531 
Q 1563 422 1919 422 
Q 2459 422 2753 634 
Q 3047 847 3047 1241 
Q 3047 1584 2836 1778 
Q 2625 1972 2144 2069 
L 1759 2144 
Q 1053 2284 737 2584 
Q 422 2884 422 3419 
Q 422 4038 858 4394 
Q 1294 4750 2059 4750 
Q 2388 4750 2728 4690 
Q 3069 4631 3425 4513 
z
" id="DejaVuSans-53" transform="scale(0.015625)"/>
      <path d="M 1259 4147 
L 1259 519 
L 2022 519 
Q 2988 519 3436 956 
Q 3884 1394 3884 2338 
Q 3884 3275 3436 3711 
Q 2988 4147 2022 4147 
L 1259 4147 
z
M 628 4666 
L 1925 4666 
Q 3281 4666 3915 4102 
Q 4550 3538 4550 2338 
Q 4550 1131 3912 565 
Q 3275 0 1925 0 
L 628 0 
L 628 4666 
z
" id="DejaVuSans-44" transform="scale(0.015625)"/>
     </defs>
     <use xlink:href="#DejaVuSans-45"/>
     <use x="63.183594" xlink:href="#DejaVuSans-54"/>
     <use x="124.267578" xlink:href="#DejaVuSans-48"/>
     <use x="199.462891" xlink:href="#DejaVuSans-2d"/>
     <use x="235.546875" xlink:href="#DejaVuSans-55"/>
     <use x="308.740234" xlink:href="#DejaVuSans-53"/>
     <use x="372.216797" xlink:href="#DejaVuSans-44"/>
    </g>
   </g>
   <g id="legend_1">
    <g id="patch_7">
     <path d="M 97 121.154375 
L 166.378125 121.154375 
Q 168.378125 121.154375 168.378125 119.154375 
L 168.378125 76.12 
Q 168.378125 74.12 166.378125 74.12 
L 97 74.12 
Q 95 74.12 95 76.12 
L 95 119.154375 
Q 95 121.154375 97 121.154375 
z
" style="fill:#e5e5e5;opacity:0.8;stroke:#cccccc;stroke-linejoin:miter;stroke-width:0.5;"/>
    </g>
    <g id="line2d_30">
     <path d="M 99 82.218438 
L 119 82.218438 
" style="fill:none;stroke:#e24a33;stroke-linecap:square;stroke-width:1.5;"/>
    </g>
    <g id="line2d_31"/>
    <g id="text_15">
     <!-- original -->
     <g transform="translate(127 85.718438)scale(0.1 -0.1)">
      <defs>
       <path d="M 1959 3097 
Q 1497 3097 1228 2736 
Q 959 2375 959 1747 
Q 959 1119 1226 758 
Q 1494 397 1959 397 
Q 2419 397 2687 759 
Q 2956 1122 2956 1747 
Q 2956 2369 2687 2733 
Q 2419 3097 1959 3097 
z
M 1959 3584 
Q 2709 3584 3137 3096 
Q 3566 2609 3566 1747 
Q 3566 888 3137 398 
Q 2709 -91 1959 -91 
Q 1206 -91 779 398 
Q 353 888 353 1747 
Q 353 2609 779 3096 
Q 1206 3584 1959 3584 
z
" id="DejaVuSans-6f" transform="scale(0.015625)"/>
       <path d="M 2631 2963 
Q 2534 3019 2420 3045 
Q 2306 3072 2169 3072 
Q 1681 3072 1420 2755 
Q 1159 2438 1159 1844 
L 1159 0 
L 581 0 
L 581 3500 
L 1159 3500 
L 1159 2956 
Q 1341 3275 1631 3429 
Q 1922 3584 2338 3584 
Q 2397 3584 2469 3576 
Q 2541 3569 2628 3553 
L 2631 2963 
z
" id="DejaVuSans-72" transform="scale(0.015625)"/>
       <path d="M 603 3500 
L 1178 3500 
L 1178 0 
L 603 0 
L 603 3500 
z
M 603 4863 
L 1178 4863 
L 1178 4134 
L 603 4134 
L 603 4863 
z
" id="DejaVuSans-69" transform="scale(0.015625)"/>
       <path d="M 2906 1791 
Q 2906 2416 2648 2759 
Q 2391 3103 1925 3103 
Q 1463 3103 1205 2759 
Q 947 2416 947 1791 
Q 947 1169 1205 825 
Q 1463 481 1925 481 
Q 2391 481 2648 825 
Q 2906 1169 2906 1791 
z
M 3481 434 
Q 3481 -459 3084 -895 
Q 2688 -1331 1869 -1331 
Q 1566 -1331 1297 -1286 
Q 1028 -1241 775 -1147 
L 775 -588 
Q 1028 -725 1275 -790 
Q 1522 -856 1778 -856 
Q 2344 -856 2625 -561 
Q 2906 -266 2906 331 
L 2906 616 
Q 2728 306 2450 153 
Q 2172 0 1784 0 
Q 1141 0 747 490 
Q 353 981 353 1791 
Q 353 2603 747 3093 
Q 1141 3584 1784 3584 
Q 2172 3584 2450 3431 
Q 2728 3278 2906 2969 
L 2906 3500 
L 3481 3500 
L 3481 434 
z
" id="DejaVuSans-67" transform="scale(0.015625)"/>
       <path d="M 3513 2113 
L 3513 0 
L 2938 0 
L 2938 2094 
Q 2938 2591 2744 2837 
Q 2550 3084 2163 3084 
Q 1697 3084 1428 2787 
Q 1159 2491 1159 1978 
L 1159 0 
L 581 0 
L 581 3500 
L 1159 3500 
L 1159 2956 
Q 1366 3272 1645 3428 
Q 1925 3584 2291 3584 
Q 2894 3584 3203 3211 
Q 3513 2838 3513 2113 
z
" id="DejaVuSans-6e" transform="scale(0.015625)"/>
       <path d="M 2194 1759 
Q 1497 1759 1228 1600 
Q 959 1441 959 1056 
Q 959 750 1161 570 
Q 1363 391 1709 391 
Q 2188 391 2477 730 
Q 2766 1069 2766 1631 
L 2766 1759 
L 2194 1759 
z
M 3341 1997 
L 3341 0 
L 2766 0 
L 2766 531 
Q 2569 213 2275 61 
Q 1981 -91 1556 -91 
Q 1019 -91 701 211 
Q 384 513 384 1019 
Q 384 1609 779 1909 
Q 1175 2209 1959 2209 
L 2766 2209 
L 2766 2266 
Q 2766 2663 2505 2880 
Q 2244 3097 1772 3097 
Q 1472 3097 1187 3025 
Q 903 2953 641 2809 
L 641 3341 
Q 956 3463 1253 3523 
Q 1550 3584 1831 3584 
Q 2591 3584 2966 3190 
Q 3341 2797 3341 1997 
z
" id="DejaVuSans-61" transform="scale(0.015625)"/>
       <path d="M 603 4863 
L 1178 4863 
L 1178 0 
L 603 0 
L 603 4863 
z
" id="DejaVuSans-6c" transform="scale(0.015625)"/>
      </defs>
      <use xlink:href="#DejaVuSans-6f"/>
      <use x="61.181641" xlink:href="#DejaVuSans-72"/>
      <use x="102.294922" xlink:href="#DejaVuSans-69"/>
      <use x="130.078125" xlink:href="#DejaVuSans-67"/>
      <use x="193.554688" xlink:href="#DejaVuSans-69"/>
      <use x="221.337891" xlink:href="#DejaVuSans-6e"/>
      <use x="284.716797" xlink:href="#DejaVuSans-61"/>
      <use x="345.996094" xlink:href="#DejaVuSans-6c"/>
     </g>
    </g>
    <g id="line2d_32">
     <path d="M 99 96.896563 
L 119 96.896563 
" style="fill:none;stroke:#348abd;stroke-linecap:square;stroke-width:1.5;"/>
    </g>
    <g id="line2d_33"/>
    <g id="text_16">
     <!-- train -->
     <g transform="translate(127 100.396563)scale(0.1 -0.1)">
      <defs>
       <path d="M 1172 4494 
L 1172 3500 
L 2356 3500 
L 2356 3053 
L 1172 3053 
L 1172 1153 
Q 1172 725 1289 603 
Q 1406 481 1766 481 
L 2356 481 
L 2356 0 
L 1766 0 
Q 1100 0 847 248 
Q 594 497 594 1153 
L 594 3053 
L 172 3053 
L 172 3500 
L 594 3500 
L 594 4494 
L 1172 4494 
z
" id="DejaVuSans-74" transform="scale(0.015625)"/>
      </defs>
      <use xlink:href="#DejaVuSans-74"/>
      <use x="39.208984" xlink:href="#DejaVuSans-72"/>
      <use x="80.322266" xlink:href="#DejaVuSans-61"/>
      <use x="141.601562" xlink:href="#DejaVuSans-69"/>
      <use x="169.384766" xlink:href="#DejaVuSans-6e"/>
     </g>
    </g>
    <g id="line2d_34">
     <path d="M 99 111.574688 
L 119 111.574688 
" style="fill:none;stroke:#988ed5;stroke-linecap:square;stroke-width:1.5;"/>
    </g>
    <g id="line2d_35"/>
    <g id="text_17">
     <!-- test -->
     <g transform="translate(127 115.074688)scale(0.1 -0.1)">
      <defs>
       <path d="M 3597 1894 
L 3597 1613 
L 953 1613 
Q 991 1019 1311 708 
Q 1631 397 2203 397 
Q 2534 397 2845 478 
Q 3156 559 3463 722 
L 3463 178 
Q 3153 47 2828 -22 
Q 2503 -91 2169 -91 
Q 1331 -91 842 396 
Q 353 884 353 1716 
Q 353 2575 817 3079 
Q 1281 3584 2069 3584 
Q 2775 3584 3186 3129 
Q 3597 2675 3597 1894 
z
M 3022 2063 
Q 3016 2534 2758 2815 
Q 2500 3097 2075 3097 
Q 1594 3097 1305 2825 
Q 1016 2553 972 2059 
L 3022 2063 
z
" id="DejaVuSans-65" transform="scale(0.015625)"/>
       <path d="M 2834 3397 
L 2834 2853 
Q 2591 2978 2328 3040 
Q 2066 3103 1784 3103 
Q 1356 3103 1142 2972 
Q 928 2841 928 2578 
Q 928 2378 1081 2264 
Q 1234 2150 1697 2047 
L 1894 2003 
Q 2506 1872 2764 1633 
Q 3022 1394 3022 966 
Q 3022 478 2636 193 
Q 2250 -91 1575 -91 
Q 1294 -91 989 -36 
Q 684 19 347 128 
L 347 722 
Q 666 556 975 473 
Q 1284 391 1588 391 
Q 1994 391 2212 530 
Q 2431 669 2431 922 
Q 2431 1156 2273 1281 
Q 2116 1406 1581 1522 
L 1381 1569 
Q 847 1681 609 1914 
Q 372 2147 372 2553 
Q 372 3047 722 3315 
Q 1072 3584 1716 3584 
Q 2034 3584 2315 3537 
Q 2597 3491 2834 3397 
z
" id="DejaVuSans-73" transform="scale(0.015625)"/>
      </defs>
      <use xlink:href="#DejaVuSans-74"/>
      <use x="39.208984" xlink:href="#DejaVuSans-65"/>
      <use x="100.732422" xlink:href="#DejaVuSans-73"/>
      <use x="152.832031" xlink:href="#DejaVuSans-74"/>
     </g>
    </g>
   </g>
  </g>
 </g>
 <defs>
  <clipPath id="p24bc209865">
   <rect height="443.52" width="558" x="90" y="69.12"/>
  </clipPath>
 </defs>
</svg>
